<svg width="97" height="56" viewBox="0 0 97 56" fill="none" xmlns="http://www.w3.org/2000/svg">
<g clip-path="url(#clip0_533_800)">
<path d="M12.8541 45.313C14.2262 45.313 15.3385 43.2077 15.3385 40.6107C15.3385 38.0137 14.2262 35.9084 12.8541 35.9084C11.482 35.9084 10.3697 38.0137 10.3697 40.6107C10.3697 43.2077 11.482 45.313 12.8541 45.313Z" fill="url(#paint0_linear_533_800)"/>
<path d="M85.118 45.5267C86.3112 45.5267 87.2784 43.7085 87.2784 41.4656C87.2784 39.2227 86.3112 37.4045 85.118 37.4045C83.9249 37.4045 82.9577 39.2227 82.9577 41.4656C82.9577 43.7085 83.9249 45.5267 85.118 45.5267Z" fill="url(#paint1_linear_533_800)"/>
<path d="M45.1515 32.916L41.2628 20.626L64.4866 0L45.1515 32.916Z" fill="url(#paint2_linear_533_800)"/>
<path d="M23.1158 14.855L41.2628 20.626L45.1514 33.0229L32.4053 33.4504L23.1158 14.855Z" fill="url(#paint3_linear_533_800)"/>
<path d="M22.6837 17.8474L21.8196 15.71L16.5267 35.0535L22.6837 17.8474Z" fill="url(#paint4_linear_533_800)"/>
<path d="M63.7305 3.63367L65.2428 0.961914L77.1247 32.9161L63.7305 3.63367Z" fill="url(#paint5_linear_533_800)"/>
<path d="M21.4955 31.9567C21.4955 30.8622 22.3316 29.9444 23.4321 29.8309L24.2962 29.742C25.5711 29.6105 26.6804 30.5997 26.6804 31.8678V39.3282H21.4955V31.9567Z" fill="#323232"/>
<path d="M21.4955 31.9567C21.4955 30.8622 22.3316 29.9444 23.4321 29.8309L24.2962 29.742C25.5711 29.6105 26.6804 30.5997 26.6804 31.8678V39.3282H21.4955V31.9567Z" fill="url(#paint6_linear_533_800)"/>
<path d="M23.98 29.8169V39.3283" stroke="#008F53"/>
<path d="M26.6804 32.916H21.4955" stroke="#019E5C"/>
<path d="M26.6804 35.0535H21.4955" stroke="#019E5C"/>
<path d="M26.6804 37.1909H21.4955" stroke="#019E5C"/>
<path d="M58.4376 25.542C58.4376 23.4762 60.1303 21.8015 62.2182 21.8015C64.3062 21.8015 65.9989 23.4762 65.9989 25.542V36.3359L58.4376 35.5331V25.542Z" fill="#323232"/>
<path d="M58.4376 25.542C58.4376 23.4762 60.1303 21.8015 62.2182 21.8015C64.3062 21.8015 65.9989 23.4762 65.9989 25.542V36.3359L58.4376 35.5331V25.542Z" fill="url(#paint7_linear_533_800)"/>
<path d="M65.9703 27.3904L58.4661 26.4722" stroke="#019E5C"/>
<path d="M62.1102 35.6946V21.8015" stroke="#008F53"/>
<path d="M65.9704 31.8791L58.4664 30.9604" stroke="#019E5C"/>
<path fill-rule="evenodd" clip-rule="evenodd" d="M75.5045 27.4656L78.961 35.374H74.1002V41.1114C75.1981 42.9128 76.7283 44.0305 78.4209 44.0305C81.7617 44.0305 84.4699 39.6764 84.4699 34.3053C84.4699 28.9342 81.7617 24.5801 78.4209 24.5801C77.1571 24.5801 75.9838 25.2031 75.0136 26.2686L75.5045 27.4656Z" fill="url(#paint8_linear_533_800)"/>
<path fill-rule="evenodd" clip-rule="evenodd" d="M17.2828 37.6213C15.9608 37.6968 14.9064 39.1498 14.9064 40.9313C14.9064 42.7128 15.9608 44.1659 17.2828 44.2413V37.6213Z" fill="url(#paint9_linear_533_800)"/>
<path d="M48.5 41.0381C74.3163 40.29 96.892 48.8396 96.892 48.8396C96.892 48.8396 77.5568 43.6295 48.5 43.7098C19.7674 43.7893 0 48.8396 0 48.8396C0 48.8396 21.7116 40.6106 48.5 41.0381Z" fill="#323232"/>
<path d="M48.5 41.0381C74.3163 40.29 96.892 48.8396 96.892 48.8396C96.892 48.8396 77.5568 43.6295 48.5 43.7098C19.7674 43.7893 0 48.8396 0 48.8396C0 48.8396 21.7116 40.6106 48.5 41.0381Z" fill="url(#paint10_linear_533_800)"/>
<path d="M20.9885 55.6355C20.9404 55.6355 20.8994 55.6212 20.8657 55.5926C20.8368 55.564 20.8224 55.5235 20.8224 55.4711V54.1633C20.8224 54.1156 20.8368 54.0775 20.8657 54.0489C20.8994 54.0156 20.9404 53.9989 20.9885 53.9989H21.1402C21.2558 53.9989 21.3569 53.9465 21.4436 53.8417C21.5303 53.7368 21.6025 53.5772 21.6603 53.3628C21.7229 53.1437 21.7687 52.8673 21.7976 52.5338C21.8265 52.2003 21.8409 51.8048 21.8409 51.3474V49.8037C21.8409 49.7561 21.8554 49.718 21.8842 49.6894C21.918 49.656 21.9589 49.6393 22.007 49.6393H24.8242C24.8772 49.6393 24.9181 49.656 24.947 49.6894C24.9807 49.718 24.9976 49.7585 24.9976 49.8109V53.9989H25.3516C25.4045 53.9989 25.4455 54.0156 25.4744 54.0489C25.5081 54.0775 25.5249 54.1156 25.5249 54.1633V55.4711C25.5249 55.5188 25.5081 55.5569 25.4744 55.5855C25.4455 55.6188 25.4045 55.6355 25.3516 55.6355H24.9832C24.9302 55.6355 24.8892 55.6188 24.8604 55.5855C24.8315 55.5569 24.817 55.5188 24.817 55.4711V54.6421H21.5303V55.4711C21.5303 55.5188 21.5134 55.5569 21.4797 55.5855C21.4508 55.6188 21.4099 55.6355 21.3569 55.6355H20.9885ZM22.0648 53.9989H24.2897V50.2826H22.5344V51.4332C22.5344 52.1098 22.4934 52.6553 22.4116 53.0698C22.3345 53.4843 22.2189 53.794 22.0648 53.9989Z" fill="#008F53"/>
<path d="M20.9885 55.6355C20.9404 55.6355 20.8994 55.6212 20.8657 55.5926C20.8368 55.564 20.8224 55.5235 20.8224 55.4711V54.1633C20.8224 54.1156 20.8368 54.0775 20.8657 54.0489C20.8994 54.0156 20.9404 53.9989 20.9885 53.9989H21.1402C21.2558 53.9989 21.3569 53.9465 21.4436 53.8417C21.5303 53.7368 21.6025 53.5772 21.6603 53.3628C21.7229 53.1437 21.7687 52.8673 21.7976 52.5338C21.8265 52.2003 21.8409 51.8048 21.8409 51.3474V49.8037C21.8409 49.7561 21.8554 49.718 21.8842 49.6894C21.918 49.656 21.9589 49.6393 22.007 49.6393H24.8242C24.8772 49.6393 24.9181 49.656 24.947 49.6894C24.9807 49.718 24.9976 49.7585 24.9976 49.8109V53.9989H25.3516C25.4045 53.9989 25.4455 54.0156 25.4744 54.0489C25.5081 54.0775 25.5249 54.1156 25.5249 54.1633V55.4711C25.5249 55.5188 25.5081 55.5569 25.4744 55.5855C25.4455 55.6188 25.4045 55.6355 25.3516 55.6355H24.9832C24.9302 55.6355 24.8892 55.6188 24.8604 55.5855C24.8315 55.5569 24.817 55.5188 24.817 55.4711V54.6421H21.5303V55.4711C21.5303 55.5188 21.5134 55.5569 21.4797 55.5855C21.4508 55.6188 21.4099 55.6355 21.3569 55.6355H20.9885ZM22.0648 53.9989H24.2897V50.2826H22.5344V51.4332C22.5344 52.1098 22.4934 52.6553 22.4116 53.0698C22.3345 53.4843 22.2189 53.794 22.0648 53.9989Z" fill="url(#paint11_linear_533_800)" fill-opacity="0.6"/>
<path d="M20.9885 55.6355C20.9404 55.6355 20.8994 55.6212 20.8657 55.5926C20.8368 55.564 20.8224 55.5235 20.8224 55.4711V54.1633C20.8224 54.1156 20.8368 54.0775 20.8657 54.0489C20.8994 54.0156 20.9404 53.9989 20.9885 53.9989H21.1402C21.2558 53.9989 21.3569 53.9465 21.4436 53.8417C21.5303 53.7368 21.6025 53.5772 21.6603 53.3628C21.7229 53.1437 21.7687 52.8673 21.7976 52.5338C21.8265 52.2003 21.8409 51.8048 21.8409 51.3474V49.8037C21.8409 49.7561 21.8554 49.718 21.8842 49.6894C21.918 49.656 21.9589 49.6393 22.007 49.6393H24.8242C24.8772 49.6393 24.9181 49.656 24.947 49.6894C24.9807 49.718 24.9976 49.7585 24.9976 49.8109V53.9989H25.3516C25.4045 53.9989 25.4455 54.0156 25.4744 54.0489C25.5081 54.0775 25.5249 54.1156 25.5249 54.1633V55.4711C25.5249 55.5188 25.5081 55.5569 25.4744 55.5855C25.4455 55.6188 25.4045 55.6355 25.3516 55.6355H24.9832C24.9302 55.6355 24.8892 55.6188 24.8604 55.5855C24.8315 55.5569 24.817 55.5188 24.817 55.4711V54.6421H21.5303V55.4711C21.5303 55.5188 21.5134 55.5569 21.4797 55.5855C21.4508 55.6188 21.4099 55.6355 21.3569 55.6355H20.9885ZM22.0648 53.9989H24.2897V50.2826H22.5344V51.4332C22.5344 52.1098 22.4934 52.6553 22.4116 53.0698C22.3345 53.4843 22.2189 53.794 22.0648 53.9989Z" fill="url(#paint12_linear_533_800)"/>
<path d="M27.8437 54.7136C27.4777 54.7136 27.1719 54.6445 26.9263 54.5063C26.6807 54.3681 26.4929 54.1776 26.3629 53.9346C26.2329 53.6868 26.1606 53.4057 26.1462 53.0912C26.1414 53.0103 26.139 52.9078 26.139 52.7839C26.139 52.6553 26.1414 52.5529 26.1462 52.4766C26.1606 52.1574 26.2329 51.8763 26.3629 51.6333C26.4977 51.3903 26.688 51.1997 26.9336 51.0616C27.1792 50.9234 27.4826 50.8543 27.8437 50.8543C28.2049 50.8543 28.5083 50.9234 28.7539 51.0616C28.9995 51.1997 29.1873 51.3903 29.3173 51.6333C29.4522 51.8763 29.5268 52.1574 29.5413 52.4766C29.5461 52.5529 29.5485 52.6553 29.5485 52.7839C29.5485 52.9078 29.5461 53.0103 29.5413 53.0912C29.5268 53.4057 29.4546 53.6868 29.3246 53.9346C29.1945 54.1776 29.0067 54.3681 28.7611 54.5063C28.5155 54.6445 28.2097 54.7136 27.8437 54.7136ZM27.8437 54.1633C28.1423 54.1633 28.3807 54.0704 28.5589 53.8845C28.737 53.694 28.8334 53.4176 28.8478 53.0555C28.8526 52.984 28.855 52.8935 28.855 52.7839C28.855 52.6744 28.8526 52.5838 28.8478 52.5124C28.8334 52.1503 28.737 51.8763 28.5589 51.6905C28.3807 51.4999 28.1423 51.4046 27.8437 51.4046C27.5452 51.4046 27.3044 51.4999 27.1214 51.6905C26.9432 51.8763 26.8493 52.1503 26.8397 52.5124C26.8348 52.5838 26.8324 52.6744 26.8324 52.7839C26.8324 52.8935 26.8348 52.984 26.8397 53.0555C26.8493 53.4176 26.9432 53.694 27.1214 53.8845C27.3044 54.0704 27.5452 54.1633 27.8437 54.1633Z" fill="#008F53"/>
<path d="M27.8437 54.7136C27.4777 54.7136 27.1719 54.6445 26.9263 54.5063C26.6807 54.3681 26.4929 54.1776 26.3629 53.9346C26.2329 53.6868 26.1606 53.4057 26.1462 53.0912C26.1414 53.0103 26.139 52.9078 26.139 52.7839C26.139 52.6553 26.1414 52.5529 26.1462 52.4766C26.1606 52.1574 26.2329 51.8763 26.3629 51.6333C26.4977 51.3903 26.688 51.1997 26.9336 51.0616C27.1792 50.9234 27.4826 50.8543 27.8437 50.8543C28.2049 50.8543 28.5083 50.9234 28.7539 51.0616C28.9995 51.1997 29.1873 51.3903 29.3173 51.6333C29.4522 51.8763 29.5268 52.1574 29.5413 52.4766C29.5461 52.5529 29.5485 52.6553 29.5485 52.7839C29.5485 52.9078 29.5461 53.0103 29.5413 53.0912C29.5268 53.4057 29.4546 53.6868 29.3246 53.9346C29.1945 54.1776 29.0067 54.3681 28.7611 54.5063C28.5155 54.6445 28.2097 54.7136 27.8437 54.7136ZM27.8437 54.1633C28.1423 54.1633 28.3807 54.0704 28.5589 53.8845C28.737 53.694 28.8334 53.4176 28.8478 53.0555C28.8526 52.984 28.855 52.8935 28.855 52.7839C28.855 52.6744 28.8526 52.5838 28.8478 52.5124C28.8334 52.1503 28.737 51.8763 28.5589 51.6905C28.3807 51.4999 28.1423 51.4046 27.8437 51.4046C27.5452 51.4046 27.3044 51.4999 27.1214 51.6905C26.9432 51.8763 26.8493 52.1503 26.8397 52.5124C26.8348 52.5838 26.8324 52.6744 26.8324 52.7839C26.8324 52.8935 26.8348 52.984 26.8397 53.0555C26.8493 53.4176 26.9432 53.694 27.1214 53.8845C27.3044 54.0704 27.5452 54.1633 27.8437 54.1633Z" fill="url(#paint13_linear_533_800)" fill-opacity="0.6"/>
<path d="M27.8437 54.7136C27.4777 54.7136 27.1719 54.6445 26.9263 54.5063C26.6807 54.3681 26.4929 54.1776 26.3629 53.9346C26.2329 53.6868 26.1606 53.4057 26.1462 53.0912C26.1414 53.0103 26.139 52.9078 26.139 52.7839C26.139 52.6553 26.1414 52.5529 26.1462 52.4766C26.1606 52.1574 26.2329 51.8763 26.3629 51.6333C26.4977 51.3903 26.688 51.1997 26.9336 51.0616C27.1792 50.9234 27.4826 50.8543 27.8437 50.8543C28.2049 50.8543 28.5083 50.9234 28.7539 51.0616C28.9995 51.1997 29.1873 51.3903 29.3173 51.6333C29.4522 51.8763 29.5268 52.1574 29.5413 52.4766C29.5461 52.5529 29.5485 52.6553 29.5485 52.7839C29.5485 52.9078 29.5461 53.0103 29.5413 53.0912C29.5268 53.4057 29.4546 53.6868 29.3246 53.9346C29.1945 54.1776 29.0067 54.3681 28.7611 54.5063C28.5155 54.6445 28.2097 54.7136 27.8437 54.7136ZM27.8437 54.1633C28.1423 54.1633 28.3807 54.0704 28.5589 53.8845C28.737 53.694 28.8334 53.4176 28.8478 53.0555C28.8526 52.984 28.855 52.8935 28.855 52.7839C28.855 52.6744 28.8526 52.5838 28.8478 52.5124C28.8334 52.1503 28.737 51.8763 28.5589 51.6905C28.3807 51.4999 28.1423 51.4046 27.8437 51.4046C27.5452 51.4046 27.3044 51.4999 27.1214 51.6905C26.9432 51.8763 26.8493 52.1503 26.8397 52.5124C26.8348 52.5838 26.8324 52.6744 26.8324 52.7839C26.8324 52.8935 26.8348 52.984 26.8397 53.0555C26.8493 53.4176 26.9432 53.694 27.1214 53.8845C27.3044 54.0704 27.5452 54.1633 27.8437 54.1633Z" fill="url(#paint14_linear_533_800)"/>
<path d="M31.97 54.7136C31.628 54.7136 31.3319 54.6493 31.0815 54.5206C30.8359 54.3872 30.6456 54.199 30.5108 53.956C30.376 53.7083 30.3037 53.4129 30.2941 53.0698C30.2893 52.9983 30.2869 52.9031 30.2869 52.7839C30.2869 52.6648 30.2893 52.5695 30.2941 52.4981C30.3037 52.155 30.376 51.862 30.5108 51.619C30.6456 51.3713 30.8359 51.1831 31.0815 51.0544C31.3319 50.921 31.628 50.8543 31.97 50.8543C32.2493 50.8543 32.4876 50.8924 32.6851 50.9686C32.8874 51.0449 33.0535 51.1426 33.1835 51.2617C33.3135 51.3808 33.4099 51.5094 33.4725 51.6476C33.5399 51.7858 33.576 51.9168 33.5808 52.0407C33.5856 52.0883 33.5712 52.1264 33.5375 52.155C33.5038 52.1836 33.4628 52.1979 33.4147 52.1979H33.0679C33.0198 52.1979 32.9837 52.1884 32.9596 52.1693C32.9355 52.1455 32.9114 52.1074 32.8874 52.055C32.8007 51.8215 32.6827 51.6571 32.5334 51.5618C32.3841 51.4665 32.1987 51.4189 31.9772 51.4189C31.6882 51.4189 31.4523 51.507 31.2693 51.6833C31.0911 51.8596 30.9948 52.1431 30.9803 52.5338C30.9755 52.7053 30.9755 52.8721 30.9803 53.0341C30.9948 53.4295 31.0911 53.7154 31.2693 53.8917C31.4523 54.0632 31.6882 54.149 31.9772 54.149C32.1987 54.149 32.3841 54.1013 32.5334 54.006C32.6827 53.9108 32.8007 53.7464 32.8874 53.5129C32.9114 53.4605 32.9355 53.4248 32.9596 53.4057C32.9837 53.3819 33.0198 53.37 33.0679 53.37H33.4147C33.4628 53.37 33.5038 53.3843 33.5375 53.4129C33.5712 53.4414 33.5856 53.4796 33.5808 53.5272C33.576 53.6273 33.5543 53.7297 33.5158 53.8345C33.4773 53.9393 33.4147 54.0465 33.328 54.1561C33.2461 54.2609 33.1426 54.3562 33.0174 54.442C32.8922 54.523 32.7405 54.5897 32.5623 54.6421C32.3889 54.6898 32.1915 54.7136 31.97 54.7136Z" fill="#008F53"/>
<path d="M31.97 54.7136C31.628 54.7136 31.3319 54.6493 31.0815 54.5206C30.8359 54.3872 30.6456 54.199 30.5108 53.956C30.376 53.7083 30.3037 53.4129 30.2941 53.0698C30.2893 52.9983 30.2869 52.9031 30.2869 52.7839C30.2869 52.6648 30.2893 52.5695 30.2941 52.4981C30.3037 52.155 30.376 51.862 30.5108 51.619C30.6456 51.3713 30.8359 51.1831 31.0815 51.0544C31.3319 50.921 31.628 50.8543 31.97 50.8543C32.2493 50.8543 32.4876 50.8924 32.6851 50.9686C32.8874 51.0449 33.0535 51.1426 33.1835 51.2617C33.3135 51.3808 33.4099 51.5094 33.4725 51.6476C33.5399 51.7858 33.576 51.9168 33.5808 52.0407C33.5856 52.0883 33.5712 52.1264 33.5375 52.155C33.5038 52.1836 33.4628 52.1979 33.4147 52.1979H33.0679C33.0198 52.1979 32.9837 52.1884 32.9596 52.1693C32.9355 52.1455 32.9114 52.1074 32.8874 52.055C32.8007 51.8215 32.6827 51.6571 32.5334 51.5618C32.3841 51.4665 32.1987 51.4189 31.9772 51.4189C31.6882 51.4189 31.4523 51.507 31.2693 51.6833C31.0911 51.8596 30.9948 52.1431 30.9803 52.5338C30.9755 52.7053 30.9755 52.8721 30.9803 53.0341C30.9948 53.4295 31.0911 53.7154 31.2693 53.8917C31.4523 54.0632 31.6882 54.149 31.9772 54.149C32.1987 54.149 32.3841 54.1013 32.5334 54.006C32.6827 53.9108 32.8007 53.7464 32.8874 53.5129C32.9114 53.4605 32.9355 53.4248 32.9596 53.4057C32.9837 53.3819 33.0198 53.37 33.0679 53.37H33.4147C33.4628 53.37 33.5038 53.3843 33.5375 53.4129C33.5712 53.4414 33.5856 53.4796 33.5808 53.5272C33.576 53.6273 33.5543 53.7297 33.5158 53.8345C33.4773 53.9393 33.4147 54.0465 33.328 54.1561C33.2461 54.2609 33.1426 54.3562 33.0174 54.442C32.8922 54.523 32.7405 54.5897 32.5623 54.6421C32.3889 54.6898 32.1915 54.7136 31.97 54.7136Z" fill="url(#paint15_linear_533_800)" fill-opacity="0.6"/>
<path d="M31.97 54.7136C31.628 54.7136 31.3319 54.6493 31.0815 54.5206C30.8359 54.3872 30.6456 54.199 30.5108 53.956C30.376 53.7083 30.3037 53.4129 30.2941 53.0698C30.2893 52.9983 30.2869 52.9031 30.2869 52.7839C30.2869 52.6648 30.2893 52.5695 30.2941 52.4981C30.3037 52.155 30.376 51.862 30.5108 51.619C30.6456 51.3713 30.8359 51.1831 31.0815 51.0544C31.3319 50.921 31.628 50.8543 31.97 50.8543C32.2493 50.8543 32.4876 50.8924 32.6851 50.9686C32.8874 51.0449 33.0535 51.1426 33.1835 51.2617C33.3135 51.3808 33.4099 51.5094 33.4725 51.6476C33.5399 51.7858 33.576 51.9168 33.5808 52.0407C33.5856 52.0883 33.5712 52.1264 33.5375 52.155C33.5038 52.1836 33.4628 52.1979 33.4147 52.1979H33.0679C33.0198 52.1979 32.9837 52.1884 32.9596 52.1693C32.9355 52.1455 32.9114 52.1074 32.8874 52.055C32.8007 51.8215 32.6827 51.6571 32.5334 51.5618C32.3841 51.4665 32.1987 51.4189 31.9772 51.4189C31.6882 51.4189 31.4523 51.507 31.2693 51.6833C31.0911 51.8596 30.9948 52.1431 30.9803 52.5338C30.9755 52.7053 30.9755 52.8721 30.9803 53.0341C30.9948 53.4295 31.0911 53.7154 31.2693 53.8917C31.4523 54.0632 31.6882 54.149 31.9772 54.149C32.1987 54.149 32.3841 54.1013 32.5334 54.006C32.6827 53.9108 32.8007 53.7464 32.8874 53.5129C32.9114 53.4605 32.9355 53.4248 32.9596 53.4057C32.9837 53.3819 33.0198 53.37 33.0679 53.37H33.4147C33.4628 53.37 33.5038 53.3843 33.5375 53.4129C33.5712 53.4414 33.5856 53.4796 33.5808 53.5272C33.576 53.6273 33.5543 53.7297 33.5158 53.8345C33.4773 53.9393 33.4147 54.0465 33.328 54.1561C33.2461 54.2609 33.1426 54.3562 33.0174 54.442C32.8922 54.523 32.7405 54.5897 32.5623 54.6421C32.3889 54.6898 32.1915 54.7136 31.97 54.7136Z" fill="url(#paint16_linear_533_800)"/>
<path d="M35.5872 54.6421C35.5391 54.6421 35.4981 54.6278 35.4644 54.5992C35.4355 54.5659 35.4211 54.5254 35.4211 54.4777V51.4975H34.1642C34.116 51.4975 34.0751 51.4832 34.0414 51.4546C34.0125 51.4213 33.998 51.3808 33.998 51.3331V51.0901C33.998 51.0425 34.0125 51.0044 34.0414 50.9758C34.0751 50.9424 34.116 50.9258 34.1642 50.9258H37.3425C37.3907 50.9258 37.4292 50.9424 37.4581 50.9758C37.4918 51.0044 37.5087 51.0425 37.5087 51.0901V51.3331C37.5087 51.3808 37.4918 51.4213 37.4581 51.4546C37.4292 51.4832 37.3907 51.4975 37.3425 51.4975H36.0856V54.4777C36.0856 54.5254 36.0712 54.5659 36.0423 54.5992C36.0134 54.6278 35.9725 54.6421 35.9195 54.6421H35.5872Z" fill="#008F53"/>
<path d="M35.5872 54.6421C35.5391 54.6421 35.4981 54.6278 35.4644 54.5992C35.4355 54.5659 35.4211 54.5254 35.4211 54.4777V51.4975H34.1642C34.116 51.4975 34.0751 51.4832 34.0414 51.4546C34.0125 51.4213 33.998 51.3808 33.998 51.3331V51.0901C33.998 51.0425 34.0125 51.0044 34.0414 50.9758C34.0751 50.9424 34.116 50.9258 34.1642 50.9258H37.3425C37.3907 50.9258 37.4292 50.9424 37.4581 50.9758C37.4918 51.0044 37.5087 51.0425 37.5087 51.0901V51.3331C37.5087 51.3808 37.4918 51.4213 37.4581 51.4546C37.4292 51.4832 37.3907 51.4975 37.3425 51.4975H36.0856V54.4777C36.0856 54.5254 36.0712 54.5659 36.0423 54.5992C36.0134 54.6278 35.9725 54.6421 35.9195 54.6421H35.5872Z" fill="url(#paint17_linear_533_800)" fill-opacity="0.6"/>
<path d="M35.5872 54.6421C35.5391 54.6421 35.4981 54.6278 35.4644 54.5992C35.4355 54.5659 35.4211 54.5254 35.4211 54.4777V51.4975H34.1642C34.116 51.4975 34.0751 51.4832 34.0414 51.4546C34.0125 51.4213 33.998 51.3808 33.998 51.3331V51.0901C33.998 51.0425 34.0125 51.0044 34.0414 50.9758C34.0751 50.9424 34.116 50.9258 34.1642 50.9258H37.3425C37.3907 50.9258 37.4292 50.9424 37.4581 50.9758C37.4918 51.0044 37.5087 51.0425 37.5087 51.0901V51.3331C37.5087 51.3808 37.4918 51.4213 37.4581 51.4546C37.4292 51.4832 37.3907 51.4975 37.3425 51.4975H36.0856V54.4777C36.0856 54.5254 36.0712 54.5659 36.0423 54.5992C36.0134 54.6278 35.9725 54.6421 35.9195 54.6421H35.5872Z" fill="url(#paint18_linear_533_800)"/>
<path d="M38.3085 56C38.2555 56 38.2146 55.9833 38.1857 55.95C38.1568 55.9214 38.1423 55.8833 38.1423 55.8356V55.5926C38.1423 55.545 38.1568 55.5045 38.1857 55.4711C38.2146 55.4425 38.2555 55.4283 38.3085 55.4283H38.4963C38.607 55.4283 38.6961 55.4068 38.7635 55.3639C38.831 55.3211 38.8912 55.2472 38.9441 55.1424C39.0019 55.0423 39.0693 54.9042 39.1464 54.7279L40.7139 51.0473C40.7283 51.0091 40.7476 50.9806 40.7717 50.9615C40.8006 50.9377 40.8415 50.9258 40.8945 50.9258H41.2123C41.2557 50.9258 41.2918 50.9401 41.3207 50.9686C41.3496 50.9972 41.364 51.0306 41.364 51.0687C41.364 51.0878 41.3616 51.1068 41.3568 51.1259C41.352 51.1402 41.3423 51.164 41.3279 51.1973L39.9554 54.4134C39.8832 54.5849 39.8037 54.7636 39.717 54.9494C39.6352 55.1352 39.5413 55.3068 39.4353 55.464C39.3342 55.626 39.2138 55.7546 39.0742 55.8499C38.9345 55.95 38.7708 56 38.583 56H38.3085ZM39.3125 54.5349L37.8534 51.1973C37.8293 51.1402 37.8173 51.0997 37.8173 51.0759C37.8221 51.033 37.8389 50.9972 37.8678 50.9686C37.8967 50.9401 37.9304 50.9258 37.9689 50.9258H38.3085C38.3614 50.9258 38.4 50.9377 38.424 50.9615C38.4529 50.9853 38.4746 51.0139 38.489 51.0473L39.6882 53.8845L39.3125 54.5349Z" fill="#008F53"/>
<path d="M38.3085 56C38.2555 56 38.2146 55.9833 38.1857 55.95C38.1568 55.9214 38.1423 55.8833 38.1423 55.8356V55.5926C38.1423 55.545 38.1568 55.5045 38.1857 55.4711C38.2146 55.4425 38.2555 55.4283 38.3085 55.4283H38.4963C38.607 55.4283 38.6961 55.4068 38.7635 55.3639C38.831 55.3211 38.8912 55.2472 38.9441 55.1424C39.0019 55.0423 39.0693 54.9042 39.1464 54.7279L40.7139 51.0473C40.7283 51.0091 40.7476 50.9806 40.7717 50.9615C40.8006 50.9377 40.8415 50.9258 40.8945 50.9258H41.2123C41.2557 50.9258 41.2918 50.9401 41.3207 50.9686C41.3496 50.9972 41.364 51.0306 41.364 51.0687C41.364 51.0878 41.3616 51.1068 41.3568 51.1259C41.352 51.1402 41.3423 51.164 41.3279 51.1973L39.9554 54.4134C39.8832 54.5849 39.8037 54.7636 39.717 54.9494C39.6352 55.1352 39.5413 55.3068 39.4353 55.464C39.3342 55.626 39.2138 55.7546 39.0742 55.8499C38.9345 55.95 38.7708 56 38.583 56H38.3085ZM39.3125 54.5349L37.8534 51.1973C37.8293 51.1402 37.8173 51.0997 37.8173 51.0759C37.8221 51.033 37.8389 50.9972 37.8678 50.9686C37.8967 50.9401 37.9304 50.9258 37.9689 50.9258H38.3085C38.3614 50.9258 38.4 50.9377 38.424 50.9615C38.4529 50.9853 38.4746 51.0139 38.489 51.0473L39.6882 53.8845L39.3125 54.5349Z" fill="url(#paint19_linear_533_800)" fill-opacity="0.6"/>
<path d="M38.3085 56C38.2555 56 38.2146 55.9833 38.1857 55.95C38.1568 55.9214 38.1423 55.8833 38.1423 55.8356V55.5926C38.1423 55.545 38.1568 55.5045 38.1857 55.4711C38.2146 55.4425 38.2555 55.4283 38.3085 55.4283H38.4963C38.607 55.4283 38.6961 55.4068 38.7635 55.3639C38.831 55.3211 38.8912 55.2472 38.9441 55.1424C39.0019 55.0423 39.0693 54.9042 39.1464 54.7279L40.7139 51.0473C40.7283 51.0091 40.7476 50.9806 40.7717 50.9615C40.8006 50.9377 40.8415 50.9258 40.8945 50.9258H41.2123C41.2557 50.9258 41.2918 50.9401 41.3207 50.9686C41.3496 50.9972 41.364 51.0306 41.364 51.0687C41.364 51.0878 41.3616 51.1068 41.3568 51.1259C41.352 51.1402 41.3423 51.164 41.3279 51.1973L39.9554 54.4134C39.8832 54.5849 39.8037 54.7636 39.717 54.9494C39.6352 55.1352 39.5413 55.3068 39.4353 55.464C39.3342 55.626 39.2138 55.7546 39.0742 55.8499C38.9345 55.95 38.7708 56 38.583 56H38.3085ZM39.3125 54.5349L37.8534 51.1973C37.8293 51.1402 37.8173 51.0997 37.8173 51.0759C37.8221 51.033 37.8389 50.9972 37.8678 50.9686C37.8967 50.9401 37.9304 50.9258 37.9689 50.9258H38.3085C38.3614 50.9258 38.4 50.9377 38.424 50.9615C38.4529 50.9853 38.4746 51.0139 38.489 51.0473L39.6882 53.8845L39.3125 54.5349Z" fill="url(#paint20_linear_533_800)"/>
<path d="M42.2587 54.6421C42.2105 54.6421 42.1696 54.6278 42.1359 54.5992C42.107 54.5659 42.0925 54.5254 42.0925 54.4777V51.0901C42.0925 51.0425 42.107 51.0044 42.1359 50.9758C42.1696 50.9424 42.2105 50.9258 42.2587 50.9258H45.1264C45.1746 50.9258 45.2131 50.9424 45.242 50.9758C45.2757 51.0044 45.2926 51.0425 45.2926 51.0901V54.4777C45.2926 54.5254 45.2757 54.5659 45.242 54.5992C45.2131 54.6278 45.1746 54.6421 45.1264 54.6421H44.7797C44.7315 54.6421 44.693 54.6278 44.6641 54.5992C44.6352 54.5659 44.6208 54.5254 44.6208 54.4777V51.4975H42.7643V54.4777C42.7643 54.5254 42.7499 54.5659 42.721 54.5992C42.6921 54.6278 42.6536 54.6421 42.6054 54.6421H42.2587Z" fill="#008F53"/>
<path d="M42.2587 54.6421C42.2105 54.6421 42.1696 54.6278 42.1359 54.5992C42.107 54.5659 42.0925 54.5254 42.0925 54.4777V51.0901C42.0925 51.0425 42.107 51.0044 42.1359 50.9758C42.1696 50.9424 42.2105 50.9258 42.2587 50.9258H45.1264C45.1746 50.9258 45.2131 50.9424 45.242 50.9758C45.2757 51.0044 45.2926 51.0425 45.2926 51.0901V54.4777C45.2926 54.5254 45.2757 54.5659 45.242 54.5992C45.2131 54.6278 45.1746 54.6421 45.1264 54.6421H44.7797C44.7315 54.6421 44.693 54.6278 44.6641 54.5992C44.6352 54.5659 44.6208 54.5254 44.6208 54.4777V51.4975H42.7643V54.4777C42.7643 54.5254 42.7499 54.5659 42.721 54.5992C42.6921 54.6278 42.6536 54.6421 42.6054 54.6421H42.2587Z" fill="url(#paint21_linear_533_800)" fill-opacity="0.6"/>
<path d="M42.2587 54.6421C42.2105 54.6421 42.1696 54.6278 42.1359 54.5992C42.107 54.5659 42.0925 54.5254 42.0925 54.4777V51.0901C42.0925 51.0425 42.107 51.0044 42.1359 50.9758C42.1696 50.9424 42.2105 50.9258 42.2587 50.9258H45.1264C45.1746 50.9258 45.2131 50.9424 45.242 50.9758C45.2757 51.0044 45.2926 51.0425 45.2926 51.0901V54.4777C45.2926 54.5254 45.2757 54.5659 45.242 54.5992C45.2131 54.6278 45.1746 54.6421 45.1264 54.6421H44.7797C44.7315 54.6421 44.693 54.6278 44.6641 54.5992C44.6352 54.5659 44.6208 54.5254 44.6208 54.4777V51.4975H42.7643V54.4777C42.7643 54.5254 42.7499 54.5659 42.721 54.5992C42.6921 54.6278 42.6536 54.6421 42.6054 54.6421H42.2587Z" fill="url(#paint22_linear_533_800)"/>
<path d="M46.5335 54.6421C46.4854 54.6421 46.4445 54.6278 46.4107 54.5992C46.3818 54.5659 46.3674 54.5254 46.3674 54.4777V51.0901C46.3674 51.0425 46.3818 51.0044 46.4107 50.9758C46.4445 50.9424 46.4854 50.9258 46.5335 50.9258H46.8803C46.9284 50.9258 46.967 50.9424 46.9958 50.9758C47.0247 51.0044 47.0392 51.0425 47.0392 51.0901V52.4623H49.0112V51.0901C49.0112 51.0425 49.0257 51.0044 49.0546 50.9758C49.0883 50.9424 49.1292 50.9258 49.1774 50.9258H49.5169C49.565 50.9258 49.6035 50.9424 49.6324 50.9758C49.6662 51.0044 49.683 51.0425 49.683 51.0901V54.4777C49.683 54.5254 49.6662 54.5659 49.6324 54.5992C49.6035 54.6278 49.565 54.6421 49.5169 54.6421H49.1774C49.1292 54.6421 49.0883 54.6278 49.0546 54.5992C49.0257 54.5659 49.0112 54.5254 49.0112 54.4777V53.0341H47.0392V54.4777C47.0392 54.5254 47.0247 54.5659 46.9958 54.5992C46.967 54.6278 46.9284 54.6421 46.8803 54.6421H46.5335Z" fill="#008F53"/>
<path d="M46.5335 54.6421C46.4854 54.6421 46.4445 54.6278 46.4107 54.5992C46.3818 54.5659 46.3674 54.5254 46.3674 54.4777V51.0901C46.3674 51.0425 46.3818 51.0044 46.4107 50.9758C46.4445 50.9424 46.4854 50.9258 46.5335 50.9258H46.8803C46.9284 50.9258 46.967 50.9424 46.9958 50.9758C47.0247 51.0044 47.0392 51.0425 47.0392 51.0901V52.4623H49.0112V51.0901C49.0112 51.0425 49.0257 51.0044 49.0546 50.9758C49.0883 50.9424 49.1292 50.9258 49.1774 50.9258H49.5169C49.565 50.9258 49.6035 50.9424 49.6324 50.9758C49.6662 51.0044 49.683 51.0425 49.683 51.0901V54.4777C49.683 54.5254 49.6662 54.5659 49.6324 54.5992C49.6035 54.6278 49.565 54.6421 49.5169 54.6421H49.1774C49.1292 54.6421 49.0883 54.6278 49.0546 54.5992C49.0257 54.5659 49.0112 54.5254 49.0112 54.4777V53.0341H47.0392V54.4777C47.0392 54.5254 47.0247 54.5659 46.9958 54.5992C46.967 54.6278 46.9284 54.6421 46.8803 54.6421H46.5335Z" fill="url(#paint23_linear_533_800)" fill-opacity="0.6"/>
<path d="M46.5335 54.6421C46.4854 54.6421 46.4445 54.6278 46.4107 54.5992C46.3818 54.5659 46.3674 54.5254 46.3674 54.4777V51.0901C46.3674 51.0425 46.3818 51.0044 46.4107 50.9758C46.4445 50.9424 46.4854 50.9258 46.5335 50.9258H46.8803C46.9284 50.9258 46.967 50.9424 46.9958 50.9758C47.0247 51.0044 47.0392 51.0425 47.0392 51.0901V52.4623H49.0112V51.0901C49.0112 51.0425 49.0257 51.0044 49.0546 50.9758C49.0883 50.9424 49.1292 50.9258 49.1774 50.9258H49.5169C49.565 50.9258 49.6035 50.9424 49.6324 50.9758C49.6662 51.0044 49.683 51.0425 49.683 51.0901V54.4777C49.683 54.5254 49.6662 54.5659 49.6324 54.5992C49.6035 54.6278 49.565 54.6421 49.5169 54.6421H49.1774C49.1292 54.6421 49.0883 54.6278 49.0546 54.5992C49.0257 54.5659 49.0112 54.5254 49.0112 54.4777V53.0341H47.0392V54.4777C47.0392 54.5254 47.0247 54.5659 46.9958 54.5992C46.967 54.6278 46.9284 54.6421 46.8803 54.6421H46.5335Z" fill="url(#paint24_linear_533_800)"/>
<path d="M50.9354 54.6421C50.8872 54.6421 50.8463 54.6278 50.8126 54.5992C50.7837 54.5659 50.7692 54.5254 50.7692 54.4777V51.0901C50.7692 51.0425 50.7837 51.0044 50.8126 50.9758C50.8463 50.9424 50.8872 50.9258 50.9354 50.9258H51.2821C51.3303 50.9258 51.3688 50.9424 51.3977 50.9758C51.4314 51.0044 51.4483 51.0425 51.4483 51.0901V52.1407H52.1995C52.6907 52.1407 53.0495 52.2551 53.2758 52.4838C53.5022 52.7125 53.6153 53.0222 53.6153 53.4129C53.6153 53.8321 53.4901 54.1418 53.2397 54.3419C52.9893 54.5421 52.6137 54.6421 52.1128 54.6421H50.9354ZM51.441 54.1061H52.1345C52.4283 54.1061 52.6426 54.0561 52.7774 53.956C52.9122 53.8512 52.9797 53.6701 52.9797 53.4129C52.9797 53.1651 52.9146 52.9817 52.7846 52.8626C52.6546 52.7387 52.4379 52.6767 52.1345 52.6767H51.441V54.1061ZM54.2943 54.6421C54.2462 54.6421 54.2053 54.6278 54.1715 54.5992C54.1426 54.5659 54.1282 54.5254 54.1282 54.4777V51.0901C54.1282 51.0425 54.1426 51.0044 54.1715 50.9758C54.2053 50.9424 54.2462 50.9258 54.2943 50.9258H54.6411C54.6892 50.9258 54.7278 50.9424 54.7566 50.9758C54.7904 51.0044 54.8072 51.0425 54.8072 51.0901V54.4777C54.8072 54.5254 54.7904 54.5659 54.7566 54.5992C54.7278 54.6278 54.6892 54.6421 54.6411 54.6421H54.2943Z" fill="#008F53"/>
<path d="M50.9354 54.6421C50.8872 54.6421 50.8463 54.6278 50.8126 54.5992C50.7837 54.5659 50.7692 54.5254 50.7692 54.4777V51.0901C50.7692 51.0425 50.7837 51.0044 50.8126 50.9758C50.8463 50.9424 50.8872 50.9258 50.9354 50.9258H51.2821C51.3303 50.9258 51.3688 50.9424 51.3977 50.9758C51.4314 51.0044 51.4483 51.0425 51.4483 51.0901V52.1407H52.1995C52.6907 52.1407 53.0495 52.2551 53.2758 52.4838C53.5022 52.7125 53.6153 53.0222 53.6153 53.4129C53.6153 53.8321 53.4901 54.1418 53.2397 54.3419C52.9893 54.5421 52.6137 54.6421 52.1128 54.6421H50.9354ZM51.441 54.1061H52.1345C52.4283 54.1061 52.6426 54.0561 52.7774 53.956C52.9122 53.8512 52.9797 53.6701 52.9797 53.4129C52.9797 53.1651 52.9146 52.9817 52.7846 52.8626C52.6546 52.7387 52.4379 52.6767 52.1345 52.6767H51.441V54.1061ZM54.2943 54.6421C54.2462 54.6421 54.2053 54.6278 54.1715 54.5992C54.1426 54.5659 54.1282 54.5254 54.1282 54.4777V51.0901C54.1282 51.0425 54.1426 51.0044 54.1715 50.9758C54.2053 50.9424 54.2462 50.9258 54.2943 50.9258H54.6411C54.6892 50.9258 54.7278 50.9424 54.7566 50.9758C54.7904 51.0044 54.8072 51.0425 54.8072 51.0901V54.4777C54.8072 54.5254 54.7904 54.5659 54.7566 54.5992C54.7278 54.6278 54.6892 54.6421 54.6411 54.6421H54.2943Z" fill="url(#paint25_linear_533_800)" fill-opacity="0.6"/>
<path d="M50.9354 54.6421C50.8872 54.6421 50.8463 54.6278 50.8126 54.5992C50.7837 54.5659 50.7692 54.5254 50.7692 54.4777V51.0901C50.7692 51.0425 50.7837 51.0044 50.8126 50.9758C50.8463 50.9424 50.8872 50.9258 50.9354 50.9258H51.2821C51.3303 50.9258 51.3688 50.9424 51.3977 50.9758C51.4314 51.0044 51.4483 51.0425 51.4483 51.0901V52.1407H52.1995C52.6907 52.1407 53.0495 52.2551 53.2758 52.4838C53.5022 52.7125 53.6153 53.0222 53.6153 53.4129C53.6153 53.8321 53.4901 54.1418 53.2397 54.3419C52.9893 54.5421 52.6137 54.6421 52.1128 54.6421H50.9354ZM51.441 54.1061H52.1345C52.4283 54.1061 52.6426 54.0561 52.7774 53.956C52.9122 53.8512 52.9797 53.6701 52.9797 53.4129C52.9797 53.1651 52.9146 52.9817 52.7846 52.8626C52.6546 52.7387 52.4379 52.6767 52.1345 52.6767H51.441V54.1061ZM54.2943 54.6421C54.2462 54.6421 54.2053 54.6278 54.1715 54.5992C54.1426 54.5659 54.1282 54.5254 54.1282 54.4777V51.0901C54.1282 51.0425 54.1426 51.0044 54.1715 50.9758C54.2053 50.9424 54.2462 50.9258 54.2943 50.9258H54.6411C54.6892 50.9258 54.7278 50.9424 54.7566 50.9758C54.7904 51.0044 54.8072 51.0425 54.8072 51.0901V54.4777C54.8072 54.5254 54.7904 54.5659 54.7566 54.5992C54.7278 54.6278 54.6892 54.6421 54.6411 54.6421H54.2943Z" fill="url(#paint26_linear_533_800)"/>
<path d="M56.0425 54.6421C55.9992 54.6421 55.9606 54.6278 55.9269 54.5992C55.898 54.5659 55.8836 54.5301 55.8836 54.492V51.0901C55.8836 51.0425 55.898 51.0044 55.9269 50.9758C55.9606 50.9424 56.0016 50.9258 56.0497 50.9258H56.3965C56.4446 50.9258 56.4831 50.9424 56.512 50.9758C56.5409 51.0044 56.5554 51.0425 56.5554 51.0901V54.1204L56.3676 53.9274L58.5563 51.033C58.5804 51.0044 58.6069 50.9806 58.6358 50.9615C58.6646 50.9377 58.7008 50.9258 58.7441 50.9258H59.0764C59.1149 50.9258 59.1486 50.9401 59.1775 50.9686C59.2112 50.9972 59.2281 51.0306 59.2281 51.0687V54.4777C59.2281 54.5254 59.2112 54.5659 59.1775 54.5992C59.1486 54.6278 59.1101 54.6421 59.0619 54.6421H58.7224C58.6695 54.6421 58.6285 54.6278 58.5996 54.5992C58.5707 54.5659 58.5563 54.5254 58.5563 54.4777V51.6262L58.7586 51.619L56.5554 54.5349C56.5361 54.5587 56.512 54.5826 56.4831 54.6064C56.4542 54.6302 56.4157 54.6421 56.3676 54.6421H56.0425ZM57.5739 50.4326C57.2946 50.4326 57.0755 50.3898 56.9165 50.304C56.7576 50.2182 56.6469 50.1086 56.5843 49.9752C56.5217 49.8371 56.4904 49.6941 56.4904 49.5464C56.4904 49.5083 56.5 49.4773 56.5193 49.4535C56.5433 49.4249 56.5794 49.4106 56.6276 49.4106H56.8732C56.9165 49.4106 56.9503 49.4249 56.9743 49.4535C56.9984 49.4773 57.0105 49.5083 57.0105 49.5464C57.0105 49.656 57.0466 49.7585 57.1188 49.8537C57.1959 49.9443 57.3475 49.9895 57.5739 49.9895C57.805 49.9895 57.9567 49.9443 58.029 49.8537C58.1012 49.7585 58.1373 49.656 58.1373 49.5464C58.1373 49.5083 58.1494 49.4773 58.1734 49.4535C58.1975 49.4249 58.2312 49.4106 58.2746 49.4106H58.5274C58.5707 49.4106 58.6045 49.4249 58.6285 49.4535C58.6526 49.4773 58.6646 49.5083 58.6646 49.5464C58.6646 49.6941 58.6309 49.8371 58.5635 49.9752C58.5009 50.1086 58.3902 50.2182 58.2312 50.304C58.0723 50.3898 57.8532 50.4326 57.5739 50.4326Z" fill="#008F53"/>
<path d="M56.0425 54.6421C55.9992 54.6421 55.9606 54.6278 55.9269 54.5992C55.898 54.5659 55.8836 54.5301 55.8836 54.492V51.0901C55.8836 51.0425 55.898 51.0044 55.9269 50.9758C55.9606 50.9424 56.0016 50.9258 56.0497 50.9258H56.3965C56.4446 50.9258 56.4831 50.9424 56.512 50.9758C56.5409 51.0044 56.5554 51.0425 56.5554 51.0901V54.1204L56.3676 53.9274L58.5563 51.033C58.5804 51.0044 58.6069 50.9806 58.6358 50.9615C58.6646 50.9377 58.7008 50.9258 58.7441 50.9258H59.0764C59.1149 50.9258 59.1486 50.9401 59.1775 50.9686C59.2112 50.9972 59.2281 51.0306 59.2281 51.0687V54.4777C59.2281 54.5254 59.2112 54.5659 59.1775 54.5992C59.1486 54.6278 59.1101 54.6421 59.0619 54.6421H58.7224C58.6695 54.6421 58.6285 54.6278 58.5996 54.5992C58.5707 54.5659 58.5563 54.5254 58.5563 54.4777V51.6262L58.7586 51.619L56.5554 54.5349C56.5361 54.5587 56.512 54.5826 56.4831 54.6064C56.4542 54.6302 56.4157 54.6421 56.3676 54.6421H56.0425ZM57.5739 50.4326C57.2946 50.4326 57.0755 50.3898 56.9165 50.304C56.7576 50.2182 56.6469 50.1086 56.5843 49.9752C56.5217 49.8371 56.4904 49.6941 56.4904 49.5464C56.4904 49.5083 56.5 49.4773 56.5193 49.4535C56.5433 49.4249 56.5794 49.4106 56.6276 49.4106H56.8732C56.9165 49.4106 56.9503 49.4249 56.9743 49.4535C56.9984 49.4773 57.0105 49.5083 57.0105 49.5464C57.0105 49.656 57.0466 49.7585 57.1188 49.8537C57.1959 49.9443 57.3475 49.9895 57.5739 49.9895C57.805 49.9895 57.9567 49.9443 58.029 49.8537C58.1012 49.7585 58.1373 49.656 58.1373 49.5464C58.1373 49.5083 58.1494 49.4773 58.1734 49.4535C58.1975 49.4249 58.2312 49.4106 58.2746 49.4106H58.5274C58.5707 49.4106 58.6045 49.4249 58.6285 49.4535C58.6526 49.4773 58.6646 49.5083 58.6646 49.5464C58.6646 49.6941 58.6309 49.8371 58.5635 49.9752C58.5009 50.1086 58.3902 50.2182 58.2312 50.304C58.0723 50.3898 57.8532 50.4326 57.5739 50.4326Z" fill="url(#paint27_linear_533_800)" fill-opacity="0.6"/>
<path d="M56.0425 54.6421C55.9992 54.6421 55.9606 54.6278 55.9269 54.5992C55.898 54.5659 55.8836 54.5301 55.8836 54.492V51.0901C55.8836 51.0425 55.898 51.0044 55.9269 50.9758C55.9606 50.9424 56.0016 50.9258 56.0497 50.9258H56.3965C56.4446 50.9258 56.4831 50.9424 56.512 50.9758C56.5409 51.0044 56.5554 51.0425 56.5554 51.0901V54.1204L56.3676 53.9274L58.5563 51.033C58.5804 51.0044 58.6069 50.9806 58.6358 50.9615C58.6646 50.9377 58.7008 50.9258 58.7441 50.9258H59.0764C59.1149 50.9258 59.1486 50.9401 59.1775 50.9686C59.2112 50.9972 59.2281 51.0306 59.2281 51.0687V54.4777C59.2281 54.5254 59.2112 54.5659 59.1775 54.5992C59.1486 54.6278 59.1101 54.6421 59.0619 54.6421H58.7224C58.6695 54.6421 58.6285 54.6278 58.5996 54.5992C58.5707 54.5659 58.5563 54.5254 58.5563 54.4777V51.6262L58.7586 51.619L56.5554 54.5349C56.5361 54.5587 56.512 54.5826 56.4831 54.6064C56.4542 54.6302 56.4157 54.6421 56.3676 54.6421H56.0425ZM57.5739 50.4326C57.2946 50.4326 57.0755 50.3898 56.9165 50.304C56.7576 50.2182 56.6469 50.1086 56.5843 49.9752C56.5217 49.8371 56.4904 49.6941 56.4904 49.5464C56.4904 49.5083 56.5 49.4773 56.5193 49.4535C56.5433 49.4249 56.5794 49.4106 56.6276 49.4106H56.8732C56.9165 49.4106 56.9503 49.4249 56.9743 49.4535C56.9984 49.4773 57.0105 49.5083 57.0105 49.5464C57.0105 49.656 57.0466 49.7585 57.1188 49.8537C57.1959 49.9443 57.3475 49.9895 57.5739 49.9895C57.805 49.9895 57.9567 49.9443 58.029 49.8537C58.1012 49.7585 58.1373 49.656 58.1373 49.5464C58.1373 49.5083 58.1494 49.4773 58.1734 49.4535C58.1975 49.4249 58.2312 49.4106 58.2746 49.4106H58.5274C58.5707 49.4106 58.6045 49.4249 58.6285 49.4535C58.6526 49.4773 58.6646 49.5083 58.6646 49.5464C58.6646 49.6941 58.6309 49.8371 58.5635 49.9752C58.5009 50.1086 58.3902 50.2182 58.2312 50.304C58.0723 50.3898 57.8532 50.4326 57.5739 50.4326Z" fill="url(#paint28_linear_533_800)"/>
<path d="M63.61 55.4283C63.5618 55.4283 63.5209 55.4116 63.4872 55.3782C63.4583 55.3496 63.4438 55.3115 63.4438 55.2639V54.2347C63.4438 54.1871 63.4583 54.149 63.4872 54.1204C63.5209 54.087 63.5618 54.0704 63.61 54.0704H63.6461C63.7761 54.0656 63.8869 53.9941 63.9784 53.856C64.0699 53.713 64.1397 53.4915 64.1878 53.1913C64.236 52.8864 64.2601 52.4909 64.2601 52.0049V51.0901C64.2601 51.0425 64.2745 51.0044 64.3034 50.9758C64.3371 50.9424 64.3781 50.9258 64.4262 50.9258H66.7305C66.7787 50.9258 66.8172 50.9424 66.8461 50.9758C66.8798 51.0044 66.8967 51.0425 66.8967 51.0901V54.0561H67.2362C67.2892 54.0561 67.3301 54.0727 67.359 54.1061C67.3879 54.1347 67.4023 54.1728 67.4023 54.2204V55.2639C67.4023 55.3115 67.3879 55.3496 67.359 55.3782C67.3301 55.4116 67.2892 55.4283 67.2362 55.4283H66.8967C66.8485 55.4283 66.8076 55.4116 66.7739 55.3782C66.745 55.3496 66.7305 55.3115 66.7305 55.2639V54.6421H64.1156V55.2639C64.1156 55.3115 64.0987 55.3496 64.065 55.3782C64.0361 55.4116 63.9976 55.4283 63.9495 55.4283H63.61ZM64.5057 54.0704L66.2249 54.0561V51.4975H64.9174V52.0836C64.9174 52.5886 64.8813 53.0031 64.8091 53.3271C64.7368 53.6463 64.6357 53.8941 64.5057 54.0704Z" fill="#008F53"/>
<path d="M63.61 55.4283C63.5618 55.4283 63.5209 55.4116 63.4872 55.3782C63.4583 55.3496 63.4438 55.3115 63.4438 55.2639V54.2347C63.4438 54.1871 63.4583 54.149 63.4872 54.1204C63.5209 54.087 63.5618 54.0704 63.61 54.0704H63.6461C63.7761 54.0656 63.8869 53.9941 63.9784 53.856C64.0699 53.713 64.1397 53.4915 64.1878 53.1913C64.236 52.8864 64.2601 52.4909 64.2601 52.0049V51.0901C64.2601 51.0425 64.2745 51.0044 64.3034 50.9758C64.3371 50.9424 64.3781 50.9258 64.4262 50.9258H66.7305C66.7787 50.9258 66.8172 50.9424 66.8461 50.9758C66.8798 51.0044 66.8967 51.0425 66.8967 51.0901V54.0561H67.2362C67.2892 54.0561 67.3301 54.0727 67.359 54.1061C67.3879 54.1347 67.4023 54.1728 67.4023 54.2204V55.2639C67.4023 55.3115 67.3879 55.3496 67.359 55.3782C67.3301 55.4116 67.2892 55.4283 67.2362 55.4283H66.8967C66.8485 55.4283 66.8076 55.4116 66.7739 55.3782C66.745 55.3496 66.7305 55.3115 66.7305 55.2639V54.6421H64.1156V55.2639C64.1156 55.3115 64.0987 55.3496 64.065 55.3782C64.0361 55.4116 63.9976 55.4283 63.9495 55.4283H63.61ZM64.5057 54.0704L66.2249 54.0561V51.4975H64.9174V52.0836C64.9174 52.5886 64.8813 53.0031 64.8091 53.3271C64.7368 53.6463 64.6357 53.8941 64.5057 54.0704Z" fill="url(#paint29_linear_533_800)" fill-opacity="0.6"/>
<path d="M63.61 55.4283C63.5618 55.4283 63.5209 55.4116 63.4872 55.3782C63.4583 55.3496 63.4438 55.3115 63.4438 55.2639V54.2347C63.4438 54.1871 63.4583 54.149 63.4872 54.1204C63.5209 54.087 63.5618 54.0704 63.61 54.0704H63.6461C63.7761 54.0656 63.8869 53.9941 63.9784 53.856C64.0699 53.713 64.1397 53.4915 64.1878 53.1913C64.236 52.8864 64.2601 52.4909 64.2601 52.0049V51.0901C64.2601 51.0425 64.2745 51.0044 64.3034 50.9758C64.3371 50.9424 64.3781 50.9258 64.4262 50.9258H66.7305C66.7787 50.9258 66.8172 50.9424 66.8461 50.9758C66.8798 51.0044 66.8967 51.0425 66.8967 51.0901V54.0561H67.2362C67.2892 54.0561 67.3301 54.0727 67.359 54.1061C67.3879 54.1347 67.4023 54.1728 67.4023 54.2204V55.2639C67.4023 55.3115 67.3879 55.3496 67.359 55.3782C67.3301 55.4116 67.2892 55.4283 67.2362 55.4283H66.8967C66.8485 55.4283 66.8076 55.4116 66.7739 55.3782C66.745 55.3496 66.7305 55.3115 66.7305 55.2639V54.6421H64.1156V55.2639C64.1156 55.3115 64.0987 55.3496 64.065 55.3782C64.0361 55.4116 63.9976 55.4283 63.9495 55.4283H63.61ZM64.5057 54.0704L66.2249 54.0561V51.4975H64.9174V52.0836C64.9174 52.5886 64.8813 53.0031 64.8091 53.3271C64.7368 53.6463 64.6357 53.8941 64.5057 54.0704Z" fill="url(#paint30_linear_533_800)"/>
<path d="M69.6966 54.7136C69.3306 54.7136 69.0248 54.6445 68.7792 54.5063C68.5336 54.3681 68.3458 54.1776 68.2158 53.9346C68.0857 53.6868 68.0135 53.4057 67.9991 53.0912C67.9942 53.0103 67.9918 52.9078 67.9918 52.7839C67.9918 52.6553 67.9942 52.5529 67.9991 52.4766C68.0135 52.1574 68.0857 51.8763 68.2158 51.6333C68.3506 51.3903 68.5408 51.1997 68.7864 51.0616C69.032 50.9234 69.3354 50.8543 69.6966 50.8543C70.0578 50.8543 70.3612 50.9234 70.6068 51.0616C70.8524 51.1997 71.0402 51.3903 71.1702 51.6333C71.305 51.8763 71.3797 52.1574 71.3941 52.4766C71.3989 52.5529 71.4013 52.6553 71.4013 52.7839C71.4013 52.9078 71.3989 53.0103 71.3941 53.0912C71.3797 53.4057 71.3074 53.6868 71.1774 53.9346C71.0474 54.1776 70.8596 54.3681 70.614 54.5063C70.3684 54.6445 70.0626 54.7136 69.6966 54.7136ZM69.6966 54.1633C69.9952 54.1633 70.2335 54.0704 70.4117 53.8845C70.5899 53.694 70.6862 53.4176 70.7007 53.0555C70.7055 52.984 70.7079 52.8935 70.7079 52.7839C70.7079 52.6744 70.7055 52.5838 70.7007 52.5124C70.6862 52.1503 70.5899 51.8763 70.4117 51.6905C70.2335 51.4999 69.9952 51.4046 69.6966 51.4046C69.398 51.4046 69.1572 51.4999 68.9742 51.6905C68.7961 51.8763 68.7021 52.1503 68.6925 52.5124C68.6877 52.5838 68.6853 52.6744 68.6853 52.7839C68.6853 52.8935 68.6877 52.984 68.6925 53.0555C68.7021 53.4176 68.7961 53.694 68.9742 53.8845C69.1572 54.0704 69.398 54.1633 69.6966 54.1633Z" fill="#008F53"/>
<path d="M69.6966 54.7136C69.3306 54.7136 69.0248 54.6445 68.7792 54.5063C68.5336 54.3681 68.3458 54.1776 68.2158 53.9346C68.0857 53.6868 68.0135 53.4057 67.9991 53.0912C67.9942 53.0103 67.9918 52.9078 67.9918 52.7839C67.9918 52.6553 67.9942 52.5529 67.9991 52.4766C68.0135 52.1574 68.0857 51.8763 68.2158 51.6333C68.3506 51.3903 68.5408 51.1997 68.7864 51.0616C69.032 50.9234 69.3354 50.8543 69.6966 50.8543C70.0578 50.8543 70.3612 50.9234 70.6068 51.0616C70.8524 51.1997 71.0402 51.3903 71.1702 51.6333C71.305 51.8763 71.3797 52.1574 71.3941 52.4766C71.3989 52.5529 71.4013 52.6553 71.4013 52.7839C71.4013 52.9078 71.3989 53.0103 71.3941 53.0912C71.3797 53.4057 71.3074 53.6868 71.1774 53.9346C71.0474 54.1776 70.8596 54.3681 70.614 54.5063C70.3684 54.6445 70.0626 54.7136 69.6966 54.7136ZM69.6966 54.1633C69.9952 54.1633 70.2335 54.0704 70.4117 53.8845C70.5899 53.694 70.6862 53.4176 70.7007 53.0555C70.7055 52.984 70.7079 52.8935 70.7079 52.7839C70.7079 52.6744 70.7055 52.5838 70.7007 52.5124C70.6862 52.1503 70.5899 51.8763 70.4117 51.6905C70.2335 51.4999 69.9952 51.4046 69.6966 51.4046C69.398 51.4046 69.1572 51.4999 68.9742 51.6905C68.7961 51.8763 68.7021 52.1503 68.6925 52.5124C68.6877 52.5838 68.6853 52.6744 68.6853 52.7839C68.6853 52.8935 68.6877 52.984 68.6925 53.0555C68.7021 53.4176 68.7961 53.694 68.9742 53.8845C69.1572 54.0704 69.398 54.1633 69.6966 54.1633Z" fill="url(#paint31_linear_533_800)" fill-opacity="0.6"/>
<path d="M69.6966 54.7136C69.3306 54.7136 69.0248 54.6445 68.7792 54.5063C68.5336 54.3681 68.3458 54.1776 68.2158 53.9346C68.0857 53.6868 68.0135 53.4057 67.9991 53.0912C67.9942 53.0103 67.9918 52.9078 67.9918 52.7839C67.9918 52.6553 67.9942 52.5529 67.9991 52.4766C68.0135 52.1574 68.0857 51.8763 68.2158 51.6333C68.3506 51.3903 68.5408 51.1997 68.7864 51.0616C69.032 50.9234 69.3354 50.8543 69.6966 50.8543C70.0578 50.8543 70.3612 50.9234 70.6068 51.0616C70.8524 51.1997 71.0402 51.3903 71.1702 51.6333C71.305 51.8763 71.3797 52.1574 71.3941 52.4766C71.3989 52.5529 71.4013 52.6553 71.4013 52.7839C71.4013 52.9078 71.3989 53.0103 71.3941 53.0912C71.3797 53.4057 71.3074 53.6868 71.1774 53.9346C71.0474 54.1776 70.8596 54.3681 70.614 54.5063C70.3684 54.6445 70.0626 54.7136 69.6966 54.7136ZM69.6966 54.1633C69.9952 54.1633 70.2335 54.0704 70.4117 53.8845C70.5899 53.694 70.6862 53.4176 70.7007 53.0555C70.7055 52.984 70.7079 52.8935 70.7079 52.7839C70.7079 52.6744 70.7055 52.5838 70.7007 52.5124C70.6862 52.1503 70.5899 51.8763 70.4117 51.6905C70.2335 51.4999 69.9952 51.4046 69.6966 51.4046C69.398 51.4046 69.1572 51.4999 68.9742 51.6905C68.7961 51.8763 68.7021 52.1503 68.6925 52.5124C68.6877 52.5838 68.6853 52.6744 68.6853 52.7839C68.6853 52.8935 68.6877 52.984 68.6925 53.0555C68.7021 53.4176 68.7961 53.694 68.9742 53.8845C69.1572 54.0704 69.398 54.1633 69.6966 54.1633Z" fill="url(#paint32_linear_533_800)"/>
<path d="M72.4648 54.6421C72.4166 54.6421 72.3781 54.6278 72.3492 54.5992C72.3203 54.5706 72.3059 54.5325 72.3059 54.4849V51.0616C72.3059 51.0234 72.3203 50.9925 72.3492 50.9686C72.3829 50.9401 72.4166 50.9258 72.4503 50.9258H72.8187C72.8958 50.9258 72.956 50.9639 72.9993 51.0401L74.2273 53.3128L75.4626 51.0401C75.5059 50.9639 75.5661 50.9258 75.6431 50.9258H76.0043C76.0429 50.9258 76.0766 50.9401 76.1055 50.9686C76.1343 50.9925 76.1488 51.0234 76.1488 51.0616V54.4849C76.1488 54.5325 76.1343 54.5706 76.1055 54.5992C76.0766 54.6278 76.0404 54.6421 75.9971 54.6421H75.6431C75.595 54.6421 75.5565 54.6278 75.5276 54.5992C75.4987 54.5706 75.4842 54.5325 75.4842 54.4849V51.6333L75.7371 51.6619L74.5596 53.8631C74.5355 53.9108 74.5066 53.9536 74.4729 53.9917C74.4392 54.0299 74.3887 54.0489 74.3212 54.0489H74.1334C74.0708 54.0489 74.0227 54.0299 73.989 53.9917C73.9552 53.9536 73.9239 53.9108 73.895 53.8631L72.7537 51.7691L72.9777 51.7477V54.4849C72.9777 54.5325 72.9632 54.5706 72.9343 54.5992C72.9054 54.6278 72.8669 54.6421 72.8187 54.6421H72.4648Z" fill="#008F53"/>
<path d="M72.4648 54.6421C72.4166 54.6421 72.3781 54.6278 72.3492 54.5992C72.3203 54.5706 72.3059 54.5325 72.3059 54.4849V51.0616C72.3059 51.0234 72.3203 50.9925 72.3492 50.9686C72.3829 50.9401 72.4166 50.9258 72.4503 50.9258H72.8187C72.8958 50.9258 72.956 50.9639 72.9993 51.0401L74.2273 53.3128L75.4626 51.0401C75.5059 50.9639 75.5661 50.9258 75.6431 50.9258H76.0043C76.0429 50.9258 76.0766 50.9401 76.1055 50.9686C76.1343 50.9925 76.1488 51.0234 76.1488 51.0616V54.4849C76.1488 54.5325 76.1343 54.5706 76.1055 54.5992C76.0766 54.6278 76.0404 54.6421 75.9971 54.6421H75.6431C75.595 54.6421 75.5565 54.6278 75.5276 54.5992C75.4987 54.5706 75.4842 54.5325 75.4842 54.4849V51.6333L75.7371 51.6619L74.5596 53.8631C74.5355 53.9108 74.5066 53.9536 74.4729 53.9917C74.4392 54.0299 74.3887 54.0489 74.3212 54.0489H74.1334C74.0708 54.0489 74.0227 54.0299 73.989 53.9917C73.9552 53.9536 73.9239 53.9108 73.895 53.8631L72.7537 51.7691L72.9777 51.7477V54.4849C72.9777 54.5325 72.9632 54.5706 72.9343 54.5992C72.9054 54.6278 72.8669 54.6421 72.8187 54.6421H72.4648Z" fill="url(#paint33_linear_533_800)" fill-opacity="0.6"/>
<path d="M72.4648 54.6421C72.4166 54.6421 72.3781 54.6278 72.3492 54.5992C72.3203 54.5706 72.3059 54.5325 72.3059 54.4849V51.0616C72.3059 51.0234 72.3203 50.9925 72.3492 50.9686C72.3829 50.9401 72.4166 50.9258 72.4503 50.9258H72.8187C72.8958 50.9258 72.956 50.9639 72.9993 51.0401L74.2273 53.3128L75.4626 51.0401C75.5059 50.9639 75.5661 50.9258 75.6431 50.9258H76.0043C76.0429 50.9258 76.0766 50.9401 76.1055 50.9686C76.1343 50.9925 76.1488 51.0234 76.1488 51.0616V54.4849C76.1488 54.5325 76.1343 54.5706 76.1055 54.5992C76.0766 54.6278 76.0404 54.6421 75.9971 54.6421H75.6431C75.595 54.6421 75.5565 54.6278 75.5276 54.5992C75.4987 54.5706 75.4842 54.5325 75.4842 54.4849V51.6333L75.7371 51.6619L74.5596 53.8631C74.5355 53.9108 74.5066 53.9536 74.4729 53.9917C74.4392 54.0299 74.3887 54.0489 74.3212 54.0489H74.1334C74.0708 54.0489 74.0227 54.0299 73.989 53.9917C73.9552 53.9536 73.9239 53.9108 73.895 53.8631L72.7537 51.7691L72.9777 51.7477V54.4849C72.9777 54.5325 72.9632 54.5706 72.9343 54.5992C72.9054 54.6278 72.8669 54.6421 72.8187 54.6421H72.4648Z" fill="url(#paint34_linear_533_800)"/>
</g>
<defs>
<linearGradient id="paint0_linear_533_800" x1="12.8541" y1="35.9084" x2="12.8541" y2="45.313" gradientUnits="userSpaceOnUse">
<stop stop-color="white"/>
<stop offset="1" stop-color="#BEBEBE"/>
</linearGradient>
<linearGradient id="paint1_linear_533_800" x1="85.118" y1="37.4045" x2="85.118" y2="45.5267" gradientUnits="userSpaceOnUse">
<stop stop-color="white"/>
<stop offset="1" stop-color="#BEBEBE"/>
</linearGradient>
<linearGradient id="paint2_linear_533_800" x1="52.8747" y1="0" x2="52.8747" y2="32.916" gradientUnits="userSpaceOnUse">
<stop stop-color="white"/>
<stop offset="1" stop-color="#BEBEBE"/>
</linearGradient>
<linearGradient id="paint3_linear_533_800" x1="34.1336" y1="14.855" x2="34.1336" y2="33.4504" gradientUnits="userSpaceOnUse">
<stop stop-color="white"/>
<stop offset="1" stop-color="#BEBEBE"/>
</linearGradient>
<linearGradient id="paint4_linear_533_800" x1="19.6052" y1="15.71" x2="19.6052" y2="35.0535" gradientUnits="userSpaceOnUse">
<stop stop-color="white"/>
<stop offset="1" stop-color="#BEBEBE"/>
</linearGradient>
<linearGradient id="paint5_linear_533_800" x1="70.4276" y1="0.961914" x2="70.4276" y2="32.9161" gradientUnits="userSpaceOnUse">
<stop stop-color="white"/>
<stop offset="1" stop-color="#BEBEBE"/>
</linearGradient>
<linearGradient id="paint6_linear_533_800" x1="24.088" y1="29.7302" x2="24.088" y2="39.3282" gradientUnits="userSpaceOnUse">
<stop stop-color="white"/>
<stop offset="1" stop-color="#BEBEBE"/>
</linearGradient>
<linearGradient id="paint7_linear_533_800" x1="62.2182" y1="21.8015" x2="62.2182" y2="36.3359" gradientUnits="userSpaceOnUse">
<stop stop-color="white"/>
<stop offset="1" stop-color="#BEBEBE"/>
</linearGradient>
<linearGradient id="paint8_linear_533_800" x1="79.2851" y1="24.5801" x2="79.2851" y2="44.0305" gradientUnits="userSpaceOnUse">
<stop stop-color="white"/>
<stop offset="1" stop-color="#BEBEBE"/>
</linearGradient>
<linearGradient id="paint9_linear_533_800" x1="16.0946" y1="37.6213" x2="16.0946" y2="44.2413" gradientUnits="userSpaceOnUse">
<stop stop-color="white"/>
<stop offset="1" stop-color="#BEBEBE"/>
</linearGradient>
<linearGradient id="paint10_linear_533_800" x1="48.446" y1="40.9917" x2="48.446" y2="48.8396" gradientUnits="userSpaceOnUse">
<stop stop-color="white"/>
<stop offset="1" stop-color="#BEBEBE"/>
</linearGradient>
<linearGradient id="paint11_linear_533_800" x1="49.6247" y1="52.7053" x2="69.9186" y2="65.717" gradientUnits="userSpaceOnUse">
<stop offset="0.00902039" stop-color="#00DA7E"/>
<stop offset="1" stop-opacity="0"/>
</linearGradient>
<linearGradient id="paint12_linear_533_800" x1="48.4856" y1="49.4106" x2="48.4856" y2="56" gradientUnits="userSpaceOnUse">
<stop stop-color="white"/>
<stop offset="1" stop-color="#BEBEBE"/>
</linearGradient>
<linearGradient id="paint13_linear_533_800" x1="49.6247" y1="52.7053" x2="69.9186" y2="65.717" gradientUnits="userSpaceOnUse">
<stop offset="0.00902039" stop-color="#00DA7E"/>
<stop offset="1" stop-opacity="0"/>
</linearGradient>
<linearGradient id="paint14_linear_533_800" x1="48.4856" y1="49.4106" x2="48.4856" y2="56" gradientUnits="userSpaceOnUse">
<stop stop-color="white"/>
<stop offset="1" stop-color="#BEBEBE"/>
</linearGradient>
<linearGradient id="paint15_linear_533_800" x1="49.6247" y1="52.7053" x2="69.9186" y2="65.717" gradientUnits="userSpaceOnUse">
<stop offset="0.00902039" stop-color="#00DA7E"/>
<stop offset="1" stop-opacity="0"/>
</linearGradient>
<linearGradient id="paint16_linear_533_800" x1="48.4856" y1="49.4106" x2="48.4856" y2="56" gradientUnits="userSpaceOnUse">
<stop stop-color="white"/>
<stop offset="1" stop-color="#BEBEBE"/>
</linearGradient>
<linearGradient id="paint17_linear_533_800" x1="49.6247" y1="52.7053" x2="69.9186" y2="65.717" gradientUnits="userSpaceOnUse">
<stop offset="0.00902039" stop-color="#00DA7E"/>
<stop offset="1" stop-opacity="0"/>
</linearGradient>
<linearGradient id="paint18_linear_533_800" x1="48.4856" y1="49.4106" x2="48.4856" y2="56" gradientUnits="userSpaceOnUse">
<stop stop-color="white"/>
<stop offset="1" stop-color="#BEBEBE"/>
</linearGradient>
<linearGradient id="paint19_linear_533_800" x1="49.6247" y1="52.7053" x2="69.9186" y2="65.717" gradientUnits="userSpaceOnUse">
<stop offset="0.00902039" stop-color="#00DA7E"/>
<stop offset="1" stop-opacity="0"/>
</linearGradient>
<linearGradient id="paint20_linear_533_800" x1="48.4856" y1="49.4106" x2="48.4856" y2="56" gradientUnits="userSpaceOnUse">
<stop stop-color="white"/>
<stop offset="1" stop-color="#BEBEBE"/>
</linearGradient>
<linearGradient id="paint21_linear_533_800" x1="49.6247" y1="52.7053" x2="69.9186" y2="65.717" gradientUnits="userSpaceOnUse">
<stop offset="0.00902039" stop-color="#00DA7E"/>
<stop offset="1" stop-opacity="0"/>
</linearGradient>
<linearGradient id="paint22_linear_533_800" x1="48.4856" y1="49.4106" x2="48.4856" y2="56" gradientUnits="userSpaceOnUse">
<stop stop-color="white"/>
<stop offset="1" stop-color="#BEBEBE"/>
</linearGradient>
<linearGradient id="paint23_linear_533_800" x1="49.6247" y1="52.7053" x2="69.9186" y2="65.717" gradientUnits="userSpaceOnUse">
<stop offset="0.00902039" stop-color="#00DA7E"/>
<stop offset="1" stop-opacity="0"/>
</linearGradient>
<linearGradient id="paint24_linear_533_800" x1="48.4856" y1="49.4106" x2="48.4856" y2="56" gradientUnits="userSpaceOnUse">
<stop stop-color="white"/>
<stop offset="1" stop-color="#BEBEBE"/>
</linearGradient>
<linearGradient id="paint25_linear_533_800" x1="49.6247" y1="52.7053" x2="69.9186" y2="65.717" gradientUnits="userSpaceOnUse">
<stop offset="0.00902039" stop-color="#00DA7E"/>
<stop offset="1" stop-opacity="0"/>
</linearGradient>
<linearGradient id="paint26_linear_533_800" x1="48.4856" y1="49.4106" x2="48.4856" y2="56" gradientUnits="userSpaceOnUse">
<stop stop-color="white"/>
<stop offset="1" stop-color="#BEBEBE"/>
</linearGradient>
<linearGradient id="paint27_linear_533_800" x1="49.6247" y1="52.7053" x2="69.9186" y2="65.717" gradientUnits="userSpaceOnUse">
<stop offset="0.00902039" stop-color="#00DA7E"/>
<stop offset="1" stop-opacity="0"/>
</linearGradient>
<linearGradient id="paint28_linear_533_800" x1="48.4856" y1="49.4106" x2="48.4856" y2="56" gradientUnits="userSpaceOnUse">
<stop stop-color="white"/>
<stop offset="1" stop-color="#BEBEBE"/>
</linearGradient>
<linearGradient id="paint29_linear_533_800" x1="49.6247" y1="52.7053" x2="69.9186" y2="65.717" gradientUnits="userSpaceOnUse">
<stop offset="0.00902039" stop-color="#00DA7E"/>
<stop offset="1" stop-opacity="0"/>
</linearGradient>
<linearGradient id="paint30_linear_533_800" x1="48.4856" y1="49.4106" x2="48.4856" y2="56" gradientUnits="userSpaceOnUse">
<stop stop-color="white"/>
<stop offset="1" stop-color="#BEBEBE"/>
</linearGradient>
<linearGradient id="paint31_linear_533_800" x1="49.6247" y1="52.7053" x2="69.9186" y2="65.717" gradientUnits="userSpaceOnUse">
<stop offset="0.00902039" stop-color="#00DA7E"/>
<stop offset="1" stop-opacity="0"/>
</linearGradient>
<linearGradient id="paint32_linear_533_800" x1="48.4856" y1="49.4106" x2="48.4856" y2="56" gradientUnits="userSpaceOnUse">
<stop stop-color="white"/>
<stop offset="1" stop-color="#BEBEBE"/>
</linearGradient>
<linearGradient id="paint33_linear_533_800" x1="49.6247" y1="52.7053" x2="69.9186" y2="65.717" gradientUnits="userSpaceOnUse">
<stop offset="0.00902039" stop-color="#00DA7E"/>
<stop offset="1" stop-opacity="0"/>
</linearGradient>
<linearGradient id="paint34_linear_533_800" x1="48.4856" y1="49.4106" x2="48.4856" y2="56" gradientUnits="userSpaceOnUse">
<stop stop-color="white"/>
<stop offset="1" stop-color="#BEBEBE"/>
</linearGradient>
<clipPath id="clip0_533_800">
<rect width="97" height="56" fill="white"/>
</clipPath>
</defs>
</svg>
