<svg width="89" height="56" viewBox="0 0 89 56" fill="none" xmlns="http://www.w3.org/2000/svg">
<path d="M14.3217 37.9363C15.4529 37.9363 16.3699 36.1738 16.3699 33.9995C16.3699 31.8253 15.4529 30.0627 14.3217 30.0627C13.1905 30.0627 12.2734 31.8253 12.2734 33.9995C12.2734 36.1738 13.1905 37.9363 14.3217 37.9363Z" fill="white"/>
<path d="M14.3217 37.9363C15.4529 37.9363 16.3699 36.1738 16.3699 33.9995C16.3699 31.8253 15.4529 30.0627 14.3217 30.0627C13.1905 30.0627 12.2734 31.8253 12.2734 33.9995C12.2734 36.1738 13.1905 37.9363 14.3217 37.9363Z" fill="white" fill-opacity="0.6"/>
<path d="M73.8993 38.1156C74.8829 38.1156 75.6803 36.5934 75.6803 34.7156C75.6803 32.8379 74.8829 31.3157 73.8993 31.3157C72.9156 31.3157 72.1182 32.8379 72.1182 34.7156C72.1182 36.5934 72.9156 38.1156 73.8993 38.1156Z" fill="white"/>
<path d="M73.8993 38.1156C74.8829 38.1156 75.6803 36.5934 75.6803 34.7156C75.6803 32.8379 74.8829 31.3157 73.8993 31.3157C72.9156 31.3157 72.1182 32.8379 72.1182 34.7156C72.1182 36.5934 72.9156 38.1156 73.8993 38.1156Z" fill="white" fill-opacity="0.6"/>
<path d="M40.9482 27.5576L37.7422 17.2682L56.8889 0L40.9482 27.5576Z" fill="white"/>
<path d="M40.9482 27.5576L37.7422 17.2682L56.8889 0L40.9482 27.5576Z" fill="white" fill-opacity="0.6"/>
<path d="M22.7812 12.4365L37.7424 17.2681L40.9484 27.6469L30.4399 28.0048L22.7812 12.4365Z" fill="white"/>
<path d="M22.7812 12.4365L37.7424 17.2681L40.9484 27.6469L30.4399 28.0048L22.7812 12.4365Z" fill="white" fill-opacity="0.6"/>
<path d="M22.4257 14.9418L21.7133 13.1523L17.3496 29.3469L22.4257 14.9418Z" fill="white"/>
<path d="M22.4257 14.9418L21.7133 13.1523L17.3496 29.3469L22.4257 14.9418Z" fill="white" fill-opacity="0.6"/>
<path d="M56.2656 3.04224L57.5124 0.80542L67.3084 27.5578L56.2656 3.04224Z" fill="white"/>
<path d="M56.2656 3.04224L57.5124 0.80542L67.3084 27.5578L56.2656 3.04224Z" fill="white" fill-opacity="0.6"/>
<path d="M23.7647 24.9997L23.7647 24.9997C24.7562 24.8958 25.6199 25.6771 25.6199 26.68V32.8259H21.5453V26.7544C21.5453 25.8889 22.1963 25.1638 23.0523 25.0741C23.0523 25.0741 23.0523 25.0741 23.0523 25.0741L23.7647 24.9997Z" fill="white" stroke="white" stroke-width="0.2"/>
<path d="M23.4941 24.9629V32.926" stroke="white" stroke-width="0.2"/>
<path d="M25.7199 27.5576H21.4453" stroke="white" stroke-width="0.2"/>
<path d="M25.7199 29.3472H21.4453" stroke="white" stroke-width="0.2"/>
<path d="M25.7199 31.1365H21.4453" stroke="white" stroke-width="0.2"/>
<path d="M51.9023 21.3842C51.9023 19.6547 53.2978 18.2527 55.0193 18.2527C56.7407 18.2527 58.1362 19.6547 58.1362 21.3842V30.421L51.9023 29.7489V21.3842Z" fill="white"/>
<path d="M58.1126 22.9316L51.9258 22.1628" stroke="white" stroke-width="0.2"/>
<path d="M54.9307 29.8841V18.2527" stroke="white" stroke-width="0.2"/>
<path d="M58.1124 26.6893L51.9258 25.9202" stroke="white" stroke-width="0.2"/>
<path fill-rule="evenodd" clip-rule="evenodd" d="M65.9731 22.9944L68.8229 29.6154H64.8154V34.4188C65.7206 35.927 66.9821 36.8627 68.3776 36.8627C71.1319 36.8627 73.3647 33.2174 73.3647 28.7206C73.3647 24.2239 71.1319 20.5786 68.3776 20.5786C67.3357 20.5786 66.3684 21.1002 65.5685 21.9923L65.9731 22.9944Z" fill="white"/>
<path fill-rule="evenodd" clip-rule="evenodd" d="M65.9731 22.9944L68.8229 29.6154H64.8154V34.4188C65.7206 35.927 66.9821 36.8627 68.3776 36.8627C71.1319 36.8627 73.3647 33.2174 73.3647 28.7206C73.3647 24.2239 71.1319 20.5786 68.3776 20.5786C67.3357 20.5786 66.3684 21.1002 65.5685 21.9923L65.9731 22.9944Z" fill="white" fill-opacity="0.6"/>
<path fill-rule="evenodd" clip-rule="evenodd" d="M17.9729 31.4968C16.883 31.56 16.0137 32.7765 16.0137 34.268C16.0137 35.7595 16.883 36.976 17.9729 37.0391V31.4968Z" fill="white"/>
<path fill-rule="evenodd" clip-rule="evenodd" d="M17.9729 31.4968C16.883 31.56 16.0137 32.7765 16.0137 34.268C16.0137 35.7595 16.883 36.976 17.9729 37.0391V31.4968Z" fill="white" fill-opacity="0.6"/>
<path d="M44.1592 34.5247C62.172 34.0785 77.9237 39.1778 77.9237 39.1778C77.9237 39.1778 64.433 36.0703 44.1592 36.1183C24.1116 36.1657 10.3193 39.1778 10.3193 39.1778C10.3193 39.1778 25.4681 34.2698 44.1592 34.5247Z" fill="white"/>
<path d="M15.6613 54.7651C15.6126 54.7651 15.5687 54.7479 15.5297 54.7134C15.4956 54.6789 15.4785 54.6345 15.4785 54.5803V52.7323C15.4785 52.683 15.4956 52.6411 15.5297 52.6066C15.5687 52.5672 15.6126 52.5475 15.6613 52.5475H15.7929C15.9148 52.5475 16.0147 52.4908 16.0927 52.3774C16.1707 52.2641 16.2341 52.1064 16.2828 51.9043C16.3316 51.6974 16.3657 51.4534 16.3852 51.1725C16.4047 50.8867 16.4144 50.5762 16.4144 50.2411V48.7405C16.4144 48.6862 16.4315 48.6419 16.4656 48.6074C16.5046 48.5729 16.5485 48.5556 16.5972 48.5556H20.0339C20.0875 48.5556 20.1313 48.5729 20.1655 48.6074C20.1996 48.6419 20.2167 48.6862 20.2167 48.7405V52.5475H20.5603C20.6139 52.5475 20.6578 52.5672 20.6919 52.6066C20.7309 52.6411 20.7504 52.683 20.7504 52.7323V54.5803C20.7504 54.6296 20.7309 54.6715 20.6919 54.706C20.6578 54.7454 20.6139 54.7651 20.5603 54.7651H19.6171C19.5635 54.7651 19.5196 54.7454 19.4855 54.706C19.4513 54.6715 19.4343 54.6296 19.4343 54.5803V53.7302H16.7947V54.5803C16.7947 54.6296 16.7776 54.6715 16.7435 54.706C16.7094 54.7454 16.6655 54.7651 16.6119 54.7651H15.6613ZM17.3504 52.5475H18.9078V49.7384H17.6867V50.4111C17.6867 50.9335 17.6575 51.3696 17.599 51.7195C17.5405 52.0645 17.4576 52.3405 17.3504 52.5475Z" fill="white"/>
<path d="M23.2162 53.8042C22.8067 53.8042 22.4606 53.7376 22.1779 53.6046C21.9001 53.4715 21.6856 53.2818 21.5345 53.0354C21.3882 52.784 21.3054 52.4859 21.2859 52.1409C21.281 52.0423 21.2785 51.9314 21.2785 51.8082C21.2785 51.6801 21.281 51.5692 21.2859 51.4756C21.3054 51.1257 21.3931 50.8275 21.5491 50.5811C21.7051 50.3347 21.922 50.145 22.1998 50.0119C22.4826 49.8789 22.8214 49.8123 23.2162 49.8123C23.6159 49.8123 23.9547 49.8789 24.2326 50.0119C24.5153 50.145 24.7347 50.3347 24.8906 50.5811C25.0466 50.8275 25.1344 51.1257 25.1539 51.4756C25.1587 51.5692 25.1612 51.6801 25.1612 51.8082C25.1612 51.9314 25.1587 52.0423 25.1539 52.1409C25.1344 52.4859 25.0491 52.784 24.898 53.0354C24.7517 53.2818 24.5372 53.4715 24.2545 53.6046C23.9767 53.7376 23.6306 53.8042 23.2162 53.8042ZM23.2162 52.9023C23.4356 52.9023 23.594 52.8358 23.6915 52.7027C23.7939 52.5696 23.8523 52.3701 23.867 52.1039C23.8718 52.03 23.8743 51.9314 23.8743 51.8082C23.8743 51.685 23.8718 51.5865 23.867 51.5126C23.8523 51.2514 23.7939 51.0542 23.6915 50.9212C23.594 50.7832 23.4356 50.7142 23.2162 50.7142C23.0017 50.7142 22.8433 50.7832 22.7409 50.9212C22.6386 51.0542 22.5825 51.2514 22.5728 51.5126C22.5679 51.5865 22.5654 51.685 22.5654 51.8082C22.5654 51.9314 22.5679 52.03 22.5728 52.1039C22.5825 52.3701 22.6386 52.5696 22.7409 52.7027C22.8433 52.8358 23.0017 52.9023 23.2162 52.9023Z" fill="white"/>
<path d="M27.6279 53.8042C27.2672 53.8042 26.9479 53.7376 26.67 53.6046C26.3922 53.4715 26.1704 53.2793 26.0046 53.028C25.8438 52.7717 25.756 52.4662 25.7414 52.1113C25.7365 52.0325 25.7341 51.9339 25.7341 51.8156C25.7341 51.6924 25.7365 51.5914 25.7414 51.5126C25.756 51.1528 25.8438 50.8472 26.0046 50.5959C26.1655 50.3396 26.3848 50.145 26.6627 50.0119C26.9454 49.8789 27.2672 49.8123 27.6279 49.8123C27.9642 49.8123 28.2518 49.8616 28.4907 49.9602C28.7295 50.0538 28.9245 50.1721 29.0756 50.315C29.2268 50.4579 29.3389 50.6058 29.412 50.7585C29.49 50.9064 29.5314 51.037 29.5363 51.1503C29.5412 51.1996 29.5241 51.244 29.4851 51.2834C29.4461 51.3179 29.4022 51.3351 29.3535 51.3351H28.4249C28.3713 51.3351 28.3298 51.3228 28.3006 51.2982C28.2713 51.2735 28.2445 51.2366 28.2201 51.1873C28.1617 51.0345 28.0861 50.9261 27.9935 50.862C27.9057 50.798 27.7912 50.7659 27.6498 50.7659C27.4548 50.7659 27.3037 50.83 27.1965 50.9581C27.0941 51.0863 27.0381 51.2834 27.0283 51.5495C27.0234 51.7466 27.0234 51.9216 27.0283 52.0744C27.0381 52.3454 27.0941 52.5425 27.1965 52.6657C27.3037 52.7889 27.4548 52.8506 27.6498 52.8506C27.8009 52.8506 27.9204 52.8185 28.0081 52.7545C28.0958 52.6904 28.1665 52.582 28.2201 52.4292C28.2445 52.3799 28.2713 52.3429 28.3006 52.3183C28.3298 52.2937 28.3713 52.2813 28.4249 52.2813H29.3535C29.4022 52.2813 29.4461 52.3011 29.4851 52.3405C29.5241 52.375 29.5412 52.4169 29.5363 52.4662C29.5314 52.5499 29.507 52.6485 29.4632 52.7618C29.4193 52.8703 29.3511 52.9861 29.2584 53.1093C29.1658 53.2325 29.044 53.3483 28.8928 53.4567C28.7466 53.5602 28.5687 53.644 28.3591 53.7081C28.1495 53.7721 27.9057 53.8042 27.6279 53.8042Z" fill="white"/>
<path d="M31.3412 53.7302C31.2925 53.7302 31.2486 53.713 31.2096 53.6785C31.1755 53.644 31.1584 53.5996 31.1584 53.5454V50.8546H30.047C29.9982 50.8546 29.9544 50.8374 29.9154 50.8029C29.8813 50.7684 29.8642 50.724 29.8642 50.6698V50.0711C29.8642 50.0169 29.8813 49.9725 29.9154 49.938C29.9544 49.9035 29.9982 49.8863 30.047 49.8863H33.4836C33.5324 49.8863 33.5738 49.9035 33.6079 49.938C33.6469 49.9725 33.6664 50.0169 33.6664 50.0711V50.6698C33.6664 50.724 33.6469 50.7684 33.6079 50.8029C33.5738 50.8374 33.5324 50.8546 33.4836 50.8546H32.3722V53.5454C32.3722 53.5996 32.3551 53.644 32.321 53.6785C32.2869 53.713 32.243 53.7302 32.1894 53.7302H31.3412Z" fill="white"/>
<path d="M34.5647 55.1422C34.5111 55.1422 34.4648 55.1224 34.4258 55.083C34.3916 55.0485 34.3746 55.0066 34.3746 54.9573V54.3586C34.3746 54.3044 34.3916 54.26 34.4258 54.2255C34.4648 54.191 34.5111 54.1738 34.5647 54.1738H34.8133C34.9059 54.1738 34.9815 54.1565 35.04 54.122C35.0985 54.0875 35.1496 54.0308 35.1935 53.952C35.2423 53.8781 35.2934 53.7746 35.3471 53.6415L36.8095 50.0415C36.8241 49.9971 36.8484 49.9602 36.8826 49.9306C36.9167 49.901 36.9654 49.8863 37.0288 49.8863H37.8112C37.8551 49.8863 37.8916 49.9035 37.9209 49.938C37.955 49.9676 37.9721 50.0021 37.9721 50.0415C37.9721 50.0513 37.9696 50.0661 37.9647 50.0858C37.9647 50.1006 37.9599 50.1179 37.9501 50.1376L36.5608 53.5232C36.4634 53.7647 36.361 53.984 36.2537 54.1812C36.1514 54.3783 36.0393 54.5483 35.9174 54.6912C35.7955 54.8391 35.6517 54.95 35.486 55.0239C35.3251 55.1027 35.1375 55.1422 34.923 55.1422H34.5647ZM35.4275 53.6489L33.9285 50.1376C33.9139 50.1031 33.9066 50.0735 33.9066 50.0489C33.9164 50.0045 33.9359 49.9676 33.9651 49.938C33.9944 49.9035 34.0334 49.8863 34.0821 49.8863H34.901C34.9644 49.8863 35.0107 49.9035 35.04 49.938C35.0741 49.9676 35.0985 50.0021 35.1131 50.0415L36.1587 52.7471L35.4275 53.6489Z" fill="white"/>
<path d="M38.7162 53.7302C38.6626 53.7302 38.6187 53.713 38.5846 53.6785C38.5505 53.644 38.5334 53.5996 38.5334 53.5454V50.0711C38.5334 50.0169 38.5505 49.9725 38.5846 49.938C38.6187 49.9035 38.6626 49.8863 38.7162 49.8863H42.0651C42.1187 49.8863 42.1626 49.9035 42.1967 49.938C42.2308 49.9725 42.2479 50.0169 42.2479 50.0711V53.5454C42.2479 53.5996 42.2308 53.644 42.1967 53.6785C42.1626 53.713 42.1187 53.7302 42.0651 53.7302H41.2023C41.1535 53.7302 41.1097 53.713 41.0707 53.6785C41.0365 53.644 41.0195 53.5996 41.0195 53.5454V50.8546H39.7618V53.5454C39.7618 53.5996 39.7423 53.644 39.7033 53.6785C39.6692 53.713 39.6278 53.7302 39.579 53.7302H38.7162Z" fill="white"/>
<path d="M43.3219 53.7302C43.2683 53.7302 43.2244 53.713 43.1903 53.6785C43.1561 53.644 43.1391 53.5996 43.1391 53.5454V50.0711C43.1391 50.0169 43.1561 49.9725 43.1903 49.938C43.2244 49.9035 43.2683 49.8863 43.3219 49.8863H44.1847C44.2334 49.8863 44.2749 49.9035 44.309 49.938C44.348 49.9725 44.3675 50.0169 44.3675 50.0711V51.2982H45.6836V50.0711C45.6836 50.0169 45.7007 49.9725 45.7348 49.938C45.7689 49.9035 45.8128 49.8863 45.8664 49.8863H46.7292C46.778 49.8863 46.8194 49.9035 46.8535 49.938C46.8925 49.9725 46.912 50.0169 46.912 50.0711V53.5454C46.912 53.5996 46.8925 53.644 46.8535 53.6785C46.8194 53.713 46.778 53.7302 46.7292 53.7302H45.8664C45.8128 53.7302 45.7689 53.713 45.7348 53.6785C45.7007 53.644 45.6836 53.5996 45.6836 53.5454V52.2666H44.3675V53.5454C44.3675 53.5996 44.348 53.644 44.309 53.6785C44.2749 53.713 44.2334 53.7302 44.1847 53.7302H43.3219Z" fill="white"/>
<path d="M47.9847 53.7302C47.9311 53.7302 47.8872 53.713 47.8531 53.6785C47.8189 53.644 47.8019 53.5996 47.8019 53.5454V50.0711C47.8019 50.0169 47.8189 49.9725 47.8531 49.938C47.8872 49.9035 47.9311 49.8863 47.9847 49.8863H48.8475C48.9011 49.8863 48.945 49.9035 48.9791 49.938C49.0181 49.9725 49.0376 50.0169 49.0376 50.0711V51.069H49.703C50.1953 51.069 50.5755 51.1898 50.8436 51.4312C51.1117 51.6678 51.2458 51.9955 51.2458 52.4144C51.2458 52.8432 51.1044 53.1709 50.8217 53.3976C50.5439 53.6193 50.1563 53.7302 49.6591 53.7302H47.9847ZM49.0083 52.8801H49.5933C49.7834 52.8801 49.9223 52.8456 50.0101 52.7766C50.0978 52.7027 50.1417 52.582 50.1417 52.4144C50.1417 52.2468 50.0978 52.1212 50.0101 52.0374C49.9272 51.9536 49.7883 51.9117 49.5933 51.9117H49.0083V52.8801ZM51.8746 53.7302C51.8259 53.7302 51.782 53.713 51.743 53.6785C51.7089 53.644 51.6918 53.5996 51.6918 53.5454V50.0711C51.6918 50.0169 51.7089 49.9725 51.743 49.938C51.782 49.9035 51.8259 49.8863 51.8746 49.8863H52.7447C52.7935 49.8863 52.8349 49.9035 52.8691 49.938C52.908 49.9725 52.9275 50.0169 52.9275 50.0711V53.5454C52.9275 53.5996 52.908 53.644 52.8691 53.6785C52.8349 53.713 52.7935 53.7302 52.7447 53.7302H51.8746Z" fill="white"/>
<path d="M53.9969 53.7302C53.9481 53.7302 53.9067 53.713 53.8726 53.6785C53.8384 53.644 53.8214 53.6021 53.8214 53.5528V50.0711C53.8214 50.0169 53.8384 49.9725 53.8726 49.938C53.9067 49.9035 53.9505 49.8863 54.0042 49.8863H54.867C54.9157 49.8863 54.9572 49.9035 54.9913 49.938C55.0303 49.9725 55.0498 50.0169 55.0498 50.0711V52.7692L54.7207 52.6066L56.5268 50.0045C56.5512 49.97 56.5804 49.9429 56.6145 49.9232C56.6487 49.8986 56.6877 49.8863 56.7315 49.8863H57.5139C57.5627 49.8863 57.6041 49.9035 57.6382 49.938C57.6723 49.9725 57.6894 50.0144 57.6894 50.0637V53.5454C57.6894 53.5996 57.6723 53.644 57.6382 53.6785C57.6041 53.713 57.5602 53.7302 57.5066 53.7302H56.6438C56.5902 53.7302 56.5463 53.713 56.5122 53.6785C56.478 53.644 56.461 53.5996 56.461 53.5454V50.9286L56.7973 50.9951L54.9767 53.612C54.9572 53.6465 54.9304 53.676 54.8962 53.7007C54.8621 53.7204 54.8207 53.7302 54.7719 53.7302H53.9969ZM55.8102 49.3836C55.508 49.3836 55.2618 49.3368 55.0717 49.2431C54.8816 49.1495 54.7427 49.0214 54.6549 48.8587C54.5721 48.6961 54.5306 48.5187 54.5306 48.3265C54.5306 48.2871 54.5404 48.255 54.5599 48.2304C54.5843 48.2008 54.6208 48.186 54.6696 48.186H55.2545C55.2984 48.186 55.3325 48.2008 55.3569 48.2304C55.3813 48.255 55.3934 48.2871 55.3934 48.3265C55.3934 48.43 55.4203 48.5212 55.4739 48.6C55.5324 48.6789 55.6445 48.7183 55.8102 48.7183C55.9808 48.7183 56.093 48.6789 56.1466 48.6C56.2051 48.5212 56.2343 48.43 56.2343 48.3265C56.2343 48.2871 56.2465 48.255 56.2709 48.2304C56.2952 48.2008 56.3294 48.186 56.3732 48.186H56.9582C57.0021 48.186 57.0362 48.2008 57.0606 48.2304C57.0849 48.255 57.0971 48.2871 57.0971 48.3265C57.0971 48.5187 57.0533 48.6961 56.9655 48.8587C56.8826 49.0214 56.7462 49.1495 56.556 49.2431C56.3659 49.3368 56.1173 49.3836 55.8102 49.3836Z" fill="white"/>
<path d="M59.9604 54.5434C59.9116 54.5434 59.8678 54.5261 59.8288 54.4916C59.7946 54.4571 59.7776 54.4128 59.7776 54.3586V52.9467C59.7776 52.8924 59.7946 52.8481 59.8288 52.8136C59.8678 52.7791 59.9116 52.7618 59.9604 52.7618H60.0335C60.1602 52.7618 60.2577 52.6978 60.326 52.5696C60.3991 52.4415 60.4478 52.2567 60.4722 52.0152C60.5015 51.7688 60.5161 51.4682 60.5161 51.1134V50.0711C60.5161 50.0169 60.5331 49.9725 60.5673 49.938C60.6063 49.9035 60.6501 49.8863 60.6989 49.8863H63.5725C63.6261 49.8863 63.67 49.9035 63.7041 49.938C63.7382 49.9725 63.7553 50.0169 63.7553 50.0711V52.7545H64.0697C64.1233 52.7545 64.1672 52.7742 64.2013 52.8136C64.2354 52.8481 64.2525 52.89 64.2525 52.9393V54.3586C64.2525 54.4128 64.2354 54.4571 64.2013 54.4916C64.1672 54.5261 64.1233 54.5434 64.0697 54.5434H63.2069C63.1533 54.5434 63.1094 54.5261 63.0753 54.4916C63.0411 54.4571 63.0241 54.4128 63.0241 54.3586V53.7302H61.0133V54.3586C61.0133 54.4128 60.9938 54.4571 60.9548 54.4916C60.9207 54.5261 60.8768 54.5434 60.8232 54.5434H59.9604ZM61.4301 52.7618L62.5269 52.7545V50.8546H61.6933V51.2464C61.6933 51.616 61.6689 51.9265 61.6202 52.1779C61.5763 52.4243 61.5129 52.6189 61.4301 52.7618Z" fill="white"/>
<path d="M66.638 53.8042C66.2285 53.8042 65.8824 53.7376 65.5997 53.6046C65.3219 53.4715 65.1074 53.2818 64.9563 53.0354C64.81 52.784 64.7272 52.4859 64.7077 52.1409C64.7028 52.0423 64.7003 51.9314 64.7003 51.8082C64.7003 51.6801 64.7028 51.5692 64.7077 51.4756C64.7272 51.1257 64.8149 50.8275 64.9709 50.5811C65.1269 50.3347 65.3438 50.145 65.6216 50.0119C65.9044 49.8789 66.2432 49.8123 66.638 49.8123C67.0377 49.8123 67.3765 49.8789 67.6544 50.0119C67.9371 50.145 68.1565 50.3347 68.3124 50.5811C68.4684 50.8275 68.5562 51.1257 68.5757 51.4756C68.5805 51.5692 68.583 51.6801 68.583 51.8082C68.583 51.9314 68.5805 52.0423 68.5757 52.1409C68.5562 52.4859 68.4709 52.784 68.3198 53.0354C68.1735 53.2818 67.959 53.4715 67.6763 53.6046C67.3985 53.7376 67.0524 53.8042 66.638 53.8042ZM66.638 52.9023C66.8574 52.9023 67.0158 52.8358 67.1133 52.7027C67.2157 52.5696 67.2741 52.3701 67.2888 52.1039C67.2936 52.03 67.2961 51.9314 67.2961 51.8082C67.2961 51.685 67.2936 51.5865 67.2888 51.5126C67.2741 51.2514 67.2157 51.0542 67.1133 50.9212C67.0158 50.7832 66.8574 50.7142 66.638 50.7142C66.4235 50.7142 66.2651 50.7832 66.1627 50.9212C66.0604 51.0542 66.0043 51.2514 65.9946 51.5126C65.9897 51.5865 65.9872 51.685 65.9872 51.8082C65.9872 51.9314 65.9897 52.03 65.9946 52.1039C66.0043 52.3701 66.0604 52.5696 66.1627 52.7027C66.2651 52.8358 66.4235 52.9023 66.638 52.9023Z" fill="white"/>
<path d="M69.4484 53.7302C69.4094 53.7302 69.3752 53.7154 69.346 53.6859C69.3168 53.6563 69.3021 53.6193 69.3021 53.575V50.0341C69.3021 49.9947 69.3168 49.9602 69.346 49.9306C69.3752 49.901 69.4094 49.8863 69.4484 49.8863H70.2892C70.377 49.8863 70.4477 49.9306 70.5013 50.0193L71.4957 51.8156L72.4974 50.0193C72.5511 49.9306 72.6218 49.8863 72.7095 49.8863H73.5504C73.5942 49.8863 73.6308 49.901 73.66 49.9306C73.6893 49.9602 73.7039 49.9947 73.7039 50.0341V53.575C73.7039 53.6193 73.6893 53.6563 73.66 53.6859C73.6308 53.7154 73.5942 53.7302 73.5504 53.7302H72.6437C72.5998 53.7302 72.5633 53.7154 72.534 53.6859C72.5048 53.6563 72.4901 53.6193 72.4901 53.575V51.1651L72.8484 51.2464L71.8613 52.991C71.8369 53.0354 71.8077 53.0748 71.7736 53.1093C71.7443 53.1388 71.7004 53.1536 71.642 53.1536H71.3495C71.3007 53.1536 71.2593 53.1388 71.2252 53.1093C71.191 53.0797 71.1594 53.0403 71.1301 52.991L70.1722 51.2908L70.5086 51.2169V53.575C70.5086 53.6193 70.494 53.6563 70.4647 53.6859C70.4355 53.7154 70.3989 53.7302 70.355 53.7302H69.4484Z" fill="white"/>
<path d="M23.7933 45.6124C23.5006 45.6124 23.2414 45.5795 23.0158 45.5136C22.7902 45.4477 22.6007 45.3582 22.4471 45.2452C22.2935 45.1275 22.1711 44.9933 22.0799 44.8426C21.9936 44.692 21.9432 44.5295 21.9288 44.3553C21.924 44.3129 21.936 44.28 21.9648 44.2564C21.9984 44.2329 22.0367 44.2211 22.0799 44.2211H22.4399C22.4831 44.2211 22.5215 44.2306 22.5551 44.2494C22.5935 44.2682 22.6223 44.3082 22.6415 44.3694C22.6991 44.5578 22.8238 44.7132 23.0158 44.8356C23.2078 44.9533 23.4646 45.0121 23.7861 45.0121C24.0117 45.0121 24.2157 44.9792 24.398 44.9133C24.5804 44.8426 24.7268 44.7438 24.8372 44.6166C24.9476 44.4848 25.0028 44.3271 25.0028 44.1434C25.0028 43.8657 24.8996 43.6514 24.6932 43.5008C24.4916 43.3454 24.2157 43.2677 23.8653 43.2677H23.347C23.299 43.2677 23.2606 43.2536 23.2318 43.2253C23.203 43.1924 23.1886 43.1523 23.1886 43.1053V42.8581C23.1886 42.8063 23.203 42.7663 23.2318 42.738C23.2606 42.7051 23.299 42.6886 23.347 42.6886H23.8365C24.1341 42.6886 24.374 42.625 24.5564 42.4979C24.7436 42.3708 24.8372 42.1683 24.8372 41.8905C24.8372 41.7351 24.7892 41.6009 24.6932 41.4879C24.602 41.3749 24.4796 41.2878 24.326 41.2266C24.1725 41.1607 23.9997 41.1278 23.8077 41.1278C23.515 41.1278 23.2702 41.1796 23.0734 41.2831C22.8766 41.3867 22.7543 41.5539 22.7063 41.7846C22.6919 41.8364 22.6703 41.874 22.6415 41.8976C22.6127 41.9164 22.5767 41.9258 22.5335 41.9258H22.1447C22.1015 41.9258 22.0631 41.9117 22.0295 41.8834C22.0008 41.8552 21.9888 41.8199 21.9936 41.7775C22.008 41.5986 22.0583 41.4338 22.1447 41.2831C22.2311 41.1278 22.3487 40.9936 22.4975 40.8806C22.6511 40.7676 22.8382 40.6805 23.059 40.6193C23.2798 40.558 23.5318 40.5274 23.8149 40.5274C24.2037 40.5274 24.5252 40.591 24.7796 40.7181C25.034 40.8453 25.2259 41.01 25.3555 41.2125C25.4851 41.4103 25.5499 41.6245 25.5499 41.8552C25.5499 41.9964 25.5307 42.1353 25.4923 42.2719C25.4587 42.4084 25.3987 42.5332 25.3123 42.6462C25.2307 42.7592 25.1179 42.8581 24.974 42.9428C25.1467 43.0229 25.2859 43.1264 25.3915 43.2536C25.5019 43.376 25.5835 43.5149 25.6363 43.6703C25.6939 43.8209 25.7227 43.9834 25.7227 44.1576C25.7227 44.4448 25.6435 44.6967 25.4851 44.9133C25.3315 45.1298 25.1107 45.3017 24.8228 45.4288C24.5348 45.5512 24.1917 45.6124 23.7933 45.6124Z" fill="white"/>
<path d="M27.6959 45.6124C27.4559 45.6124 27.2375 45.5654 27.0408 45.4712C26.844 45.377 26.6856 45.2499 26.5656 45.0898C26.4456 44.9297 26.3856 44.7485 26.3856 44.546C26.3856 44.2211 26.52 43.9622 26.7888 43.7691C27.0576 43.5761 27.4079 43.449 27.8399 43.3878L28.9125 43.2394V43.0346C28.9125 42.8086 28.8453 42.6321 28.7109 42.5049C28.5814 42.3778 28.3678 42.3143 28.0702 42.3143C27.8543 42.3143 27.6791 42.3566 27.5447 42.4414C27.4151 42.5261 27.3239 42.6344 27.2711 42.7663C27.2423 42.8369 27.1919 42.8722 27.1199 42.8722H26.796C26.7432 42.8722 26.7024 42.8581 26.6736 42.8298C26.6496 42.7969 26.6376 42.7592 26.6376 42.7168C26.6376 42.6462 26.664 42.5591 26.7168 42.4555C26.7744 42.3519 26.8608 42.2507 26.976 42.1518C27.0912 42.0529 27.2375 41.9706 27.4151 41.9046C27.5975 41.834 27.8183 41.7987 28.0774 41.7987C28.3654 41.7987 28.6078 41.8364 28.8045 41.9117C29.0013 41.9823 29.1549 42.0788 29.2653 42.2013C29.3805 42.3237 29.462 42.4626 29.51 42.6179C29.5628 42.7733 29.5892 42.9311 29.5892 43.0911V45.3794C29.5892 45.4265 29.5724 45.4665 29.5388 45.4994C29.51 45.5277 29.4716 45.5418 29.4236 45.5418H29.0925C29.0397 45.5418 28.9989 45.5277 28.9701 45.4994C28.9413 45.4665 28.9269 45.4265 28.9269 45.3794V45.0757C28.8645 45.1604 28.7805 45.2452 28.6749 45.3299C28.5694 45.41 28.4374 45.4783 28.279 45.5348C28.1206 45.5866 27.9262 45.6124 27.6959 45.6124ZM27.8471 45.0828C28.0438 45.0828 28.2238 45.0427 28.387 44.9627C28.5502 44.8779 28.6773 44.7485 28.7685 44.5743C28.8645 44.4001 28.9125 44.1811 28.9125 43.9174V43.7197L28.0774 43.8398C27.7367 43.8868 27.4799 43.9669 27.3071 44.0799C27.1343 44.1882 27.048 44.3271 27.048 44.4966C27.048 44.6284 27.0864 44.7391 27.1631 44.8285C27.2447 44.9133 27.3455 44.9768 27.4655 45.0192C27.5903 45.0616 27.7175 45.0828 27.8471 45.0828Z" fill="white"/>
<path d="M32.1359 45.6124C31.7952 45.6124 31.5 45.5489 31.2505 45.4218C31.0057 45.2899 30.8161 45.1039 30.6817 44.8638C30.5474 44.619 30.4754 44.3271 30.4658 43.9881C30.461 43.9174 30.4586 43.8233 30.4586 43.7056C30.4586 43.5879 30.461 43.4937 30.4658 43.4231C30.4754 43.0841 30.5474 42.7945 30.6817 42.5544C30.8161 42.3096 31.0057 42.1236 31.2505 41.9964C31.5 41.8646 31.7952 41.7987 32.1359 41.7987C32.4143 41.7987 32.6519 41.8364 32.8486 41.9117C33.0502 41.987 33.2158 42.0836 33.3454 42.2013C33.475 42.319 33.571 42.4461 33.6333 42.5826C33.7005 42.7192 33.7365 42.8487 33.7413 42.9711C33.7461 43.0182 33.7317 43.0558 33.6981 43.0841C33.6645 43.1123 33.6237 43.1264 33.5758 43.1264H33.2302C33.1822 43.1264 33.1462 43.117 33.1222 43.0982C33.0982 43.0747 33.0742 43.037 33.0502 42.9852C32.9638 42.7545 32.8462 42.5921 32.6975 42.4979C32.5487 42.4037 32.3639 42.3566 32.1431 42.3566C31.8552 42.3566 31.62 42.4437 31.4376 42.6179C31.2601 42.7922 31.1641 43.0723 31.1497 43.4584C31.1449 43.6279 31.1449 43.7927 31.1497 43.9528C31.1641 44.3436 31.2601 44.6261 31.4376 44.8003C31.62 44.9698 31.8552 45.0545 32.1431 45.0545C32.3639 45.0545 32.5487 45.0074 32.6975 44.9133C32.8462 44.8191 32.9638 44.6567 33.0502 44.4259C33.0742 44.3742 33.0982 44.3388 33.1222 44.32C33.1462 44.2965 33.1822 44.2847 33.2302 44.2847H33.5758C33.6237 44.2847 33.6645 44.2988 33.6981 44.3271C33.7317 44.3553 33.7461 44.393 33.7413 44.4401C33.7365 44.5389 33.7149 44.6402 33.6765 44.7438C33.6381 44.8473 33.5757 44.9533 33.4894 45.0616C33.4078 45.1652 33.3046 45.2593 33.1798 45.3441C33.055 45.4241 32.9038 45.49 32.7263 45.5418C32.5535 45.5889 32.3567 45.6124 32.1359 45.6124Z" fill="white"/>
<path d="M35.7409 45.5418C35.6929 45.5418 35.6521 45.5277 35.6185 45.4994C35.5897 45.4665 35.5753 45.4265 35.5753 45.3794V42.4343H34.3227C34.2747 42.4343 34.2339 42.4202 34.2003 42.3919C34.1715 42.359 34.1571 42.319 34.1571 42.2719V42.0318C34.1571 41.9847 34.1715 41.947 34.2003 41.9188C34.2339 41.8858 34.2747 41.8693 34.3227 41.8693H37.4903C37.5383 41.8693 37.5767 41.8858 37.6055 41.9188C37.6391 41.947 37.6559 41.9847 37.6559 42.0318V42.2719C37.6559 42.319 37.6391 42.359 37.6055 42.3919C37.5767 42.4202 37.5383 42.4343 37.4903 42.4343H36.2377V45.3794C36.2377 45.4265 36.2233 45.4665 36.1945 45.4994C36.1657 45.5277 36.1249 45.5418 36.0721 45.5418H35.7409Z" fill="white"/>
<path d="M38.4529 46.8837C38.4049 46.8837 38.3641 46.8672 38.3306 46.8343C38.3018 46.806 38.2874 46.7683 38.2874 46.7213V42.0318C38.2874 41.9847 38.3018 41.947 38.3306 41.9188C38.3641 41.8858 38.4049 41.8693 38.4529 41.8693H38.7841C38.8321 41.8693 38.8705 41.8858 38.8993 41.9188C38.9329 41.947 38.9497 41.9847 38.9497 42.0318V42.3425C39.0649 42.1871 39.2184 42.0577 39.4104 41.9541C39.6024 41.8505 39.8424 41.7987 40.1303 41.7987C40.3991 41.7987 40.627 41.8434 40.8142 41.9329C41.0062 42.0223 41.1622 42.1448 41.2822 42.3001C41.4069 42.4555 41.5005 42.6321 41.5629 42.8298C41.6253 43.0276 41.6589 43.2394 41.6637 43.4654C41.6685 43.5408 41.6709 43.6208 41.6709 43.7056C41.6709 43.7903 41.6685 43.8704 41.6637 43.9457C41.6589 44.167 41.6253 44.3789 41.5629 44.5813C41.5005 44.7791 41.4069 44.9556 41.2822 45.111C41.1622 45.2617 41.0062 45.3841 40.8142 45.4783C40.627 45.5677 40.3991 45.6124 40.1303 45.6124C39.8519 45.6124 39.6168 45.563 39.4248 45.4641C39.2376 45.3606 39.0841 45.2334 38.9641 45.0828V46.7213C38.9641 46.7683 38.9497 46.806 38.9209 46.8343C38.8921 46.8672 38.8513 46.8837 38.7985 46.8837H38.4529ZM39.9791 45.0404C40.2287 45.0404 40.4231 44.9886 40.5623 44.885C40.7062 44.7767 40.8094 44.6378 40.8718 44.4683C40.9342 44.2941 40.9702 44.1081 40.9798 43.9104C40.9846 43.7738 40.9846 43.6373 40.9798 43.5008C40.9702 43.303 40.9342 43.1194 40.8718 42.9499C40.8094 42.7757 40.7062 42.6368 40.5623 42.5332C40.4231 42.4249 40.2287 42.3708 39.9791 42.3708C39.744 42.3708 39.552 42.4249 39.4032 42.5332C39.2592 42.6415 39.1512 42.7804 39.0793 42.9499C39.0121 43.1147 38.9737 43.2842 38.9641 43.4584C38.9593 43.5337 38.9569 43.6232 38.9569 43.7268C38.9569 43.8303 38.9593 43.9222 38.9641 44.0022C38.9689 44.167 39.0073 44.3294 39.0793 44.4895C39.156 44.6496 39.2688 44.7814 39.4176 44.885C39.5664 44.9886 39.7536 45.0404 39.9791 45.0404Z" fill="white"/>
<path d="M44.102 45.6124C43.7373 45.6124 43.4325 45.5442 43.1878 45.4076C42.943 45.2711 42.7558 45.0828 42.6262 44.8426C42.4967 44.5978 42.4247 44.32 42.4103 44.0093C42.4055 43.9292 42.4031 43.828 42.4031 43.7056C42.4031 43.5784 42.4055 43.4772 42.4103 43.4019C42.4247 43.0864 42.4967 42.8086 42.6262 42.5685C42.7606 42.3284 42.9502 42.1401 43.195 42.0035C43.4397 41.867 43.7421 41.7987 44.102 41.7987C44.462 41.7987 44.7644 41.867 45.0091 42.0035C45.2539 42.1401 45.4411 42.3284 45.5707 42.5685C45.705 42.8086 45.7794 43.0864 45.7938 43.4019C45.7986 43.4772 45.801 43.5784 45.801 43.7056C45.801 43.828 45.7986 43.9292 45.7938 44.0093C45.7794 44.32 45.7074 44.5978 45.5779 44.8426C45.4483 45.0828 45.2611 45.2711 45.0163 45.4076C44.7716 45.5442 44.4668 45.6124 44.102 45.6124ZM44.102 45.0686C44.3996 45.0686 44.6372 44.9768 44.8148 44.7932C44.9923 44.6049 45.0883 44.3318 45.1027 43.9739C45.1075 43.9033 45.1099 43.8139 45.1099 43.7056C45.1099 43.5973 45.1075 43.5078 45.1027 43.4372C45.0883 43.0794 44.9923 42.8086 44.8148 42.625C44.6372 42.4367 44.3996 42.3425 44.102 42.3425C43.8045 42.3425 43.5645 42.4367 43.3821 42.625C43.2046 42.8086 43.111 43.0794 43.1014 43.4372C43.0966 43.5078 43.0942 43.5973 43.0942 43.7056C43.0942 43.8139 43.0966 43.9033 43.1014 43.9739C43.111 44.3318 43.2046 44.6049 43.3821 44.7932C43.5645 44.9768 43.8045 45.0686 44.102 45.0686Z" fill="white"/>
<path d="M46.8609 45.5418C46.8177 45.5418 46.7793 45.5277 46.7457 45.4994C46.7169 45.4665 46.7025 45.4312 46.7025 45.3935V42.0318C46.7025 41.9847 46.7169 41.947 46.7457 41.9188C46.7793 41.8858 46.8201 41.8693 46.8681 41.8693H47.2136C47.2616 41.8693 47.3 41.8858 47.3288 41.9188C47.3576 41.947 47.372 41.9847 47.372 42.0318V45.0263L47.1848 44.8356L49.3661 41.9753C49.3901 41.947 49.4165 41.9235 49.4453 41.9046C49.4741 41.8811 49.5101 41.8693 49.5533 41.8693H49.8845C49.9229 41.8693 49.9564 41.8834 49.9852 41.9117C50.0188 41.9399 50.0356 41.9729 50.0356 42.0106V45.3794C50.0356 45.4265 50.0188 45.4665 49.9852 45.4994C49.9564 45.5277 49.9181 45.5418 49.8701 45.5418H49.5317C49.4789 45.5418 49.4381 45.5277 49.4093 45.4994C49.3805 45.4665 49.3661 45.4265 49.3661 45.3794V42.5614L49.5677 42.5544L47.372 45.4359C47.3528 45.4594 47.3288 45.483 47.3 45.5065C47.2712 45.5301 47.2328 45.5418 47.1848 45.5418H46.8609ZM48.3871 41.382C48.1087 41.382 47.8903 41.3396 47.7319 41.2549C47.5736 41.1701 47.4632 41.0618 47.4008 40.93C47.3384 40.7935 47.3072 40.6522 47.3072 40.5063C47.3072 40.4686 47.3168 40.438 47.336 40.4144C47.36 40.3862 47.396 40.3721 47.444 40.3721H47.6887C47.7319 40.3721 47.7655 40.3862 47.7895 40.4144C47.8135 40.438 47.8255 40.4686 47.8255 40.5063C47.8255 40.6145 47.8615 40.7158 47.9335 40.8099C48.0103 40.8994 48.1615 40.9441 48.3871 40.9441C48.6174 40.9441 48.7686 40.8994 48.8406 40.8099C48.9126 40.7158 48.9486 40.6145 48.9486 40.5063C48.9486 40.4686 48.9606 40.438 48.9846 40.4144C49.0086 40.3862 49.0422 40.3721 49.0854 40.3721H49.3373C49.3805 40.3721 49.4141 40.3862 49.4381 40.4144C49.4621 40.438 49.4741 40.4686 49.4741 40.5063C49.4741 40.6522 49.4405 40.7935 49.3733 40.93C49.3109 41.0618 49.2005 41.1701 49.0422 41.2549C48.8838 41.3396 48.6654 41.382 48.3871 41.382Z" fill="white"/>
<path d="M55.6824 46.4317C55.6344 46.4317 55.5936 46.4176 55.56 46.3893C55.5312 46.3611 55.5168 46.3211 55.5168 46.2693V45.5418H51.255C51.207 45.5418 51.1662 45.5277 51.1326 45.4994C51.1038 45.4665 51.0894 45.4265 51.0894 45.3794V42.0318C51.0894 41.9847 51.1038 41.947 51.1326 41.9188C51.1662 41.8858 51.207 41.8693 51.255 41.8693H51.5861C51.6341 41.8693 51.6725 41.8858 51.7013 41.9188C51.7349 41.947 51.7517 41.9847 51.7517 42.0318V44.9768H53.0691V42.0318C53.0691 41.9847 53.0835 41.947 53.1123 41.9188C53.1459 41.8858 53.1867 41.8693 53.2347 41.8693H53.5371C53.5899 41.8693 53.6307 41.8858 53.6595 41.9188C53.6883 41.947 53.7026 41.9847 53.7026 42.0318V44.9768H55.0201V42.0318C55.0201 41.9847 55.0345 41.947 55.0633 41.9188C55.0969 41.8858 55.1377 41.8693 55.1857 41.8693H55.5168C55.5648 41.8693 55.6032 41.8858 55.632 41.9188C55.6656 41.947 55.6824 41.9847 55.6824 42.0318V44.9768H56.0279C56.0759 44.9768 56.1143 44.9933 56.1431 45.0263C56.1719 45.0545 56.1863 45.0922 56.1863 45.1393V46.2693C56.1863 46.3211 56.1719 46.3611 56.1431 46.3893C56.1143 46.4176 56.0759 46.4317 56.0279 46.4317H55.6824Z" fill="white"/>
<path d="M57.104 45.5418C57.0608 45.5418 57.0224 45.5277 56.9888 45.4994C56.96 45.4665 56.9457 45.4312 56.9457 45.3935V42.0318C56.9457 41.9847 56.96 41.947 56.9888 41.9188C57.0224 41.8858 57.0632 41.8693 57.1112 41.8693H57.4568C57.5048 41.8693 57.5432 41.8858 57.572 41.9188C57.6008 41.947 57.6152 41.9847 57.6152 42.0318V45.0263L57.428 44.8356L59.6093 41.9753C59.6333 41.947 59.6597 41.9235 59.6885 41.9046C59.7173 41.8811 59.7533 41.8693 59.7965 41.8693H60.1276C60.166 41.8693 60.1996 41.8834 60.2284 41.9117C60.262 41.9399 60.2788 41.9729 60.2788 42.0106V45.3794C60.2788 45.4265 60.262 45.4665 60.2284 45.4994C60.1996 45.5277 60.1612 45.5418 60.1132 45.5418H59.7749C59.7221 45.5418 59.6813 45.5277 59.6525 45.4994C59.6237 45.4665 59.6093 45.4265 59.6093 45.3794V42.5614L59.8109 42.5544L57.6152 45.4359C57.596 45.4594 57.572 45.483 57.5432 45.5065C57.5144 45.5301 57.476 45.5418 57.428 45.5418H57.104Z" fill="white"/>
<path d="M61.4981 45.5418C61.4502 45.5418 61.4094 45.5277 61.3758 45.4994C61.347 45.4665 61.3326 45.4265 61.3326 45.3794V42.0318C61.3326 41.9847 61.347 41.947 61.3758 41.9188C61.4094 41.8858 61.4502 41.8693 61.4981 41.8693H61.8365C61.8845 41.8693 61.9229 41.8858 61.9517 41.9188C61.9853 41.947 62.0021 41.9847 62.0021 42.0318V43.3878H62.6572L63.6291 41.9753C63.6531 41.9423 63.6795 41.9164 63.7083 41.8976C63.7371 41.8787 63.7754 41.8693 63.8234 41.8693H64.1978C64.241 41.8693 64.277 41.8787 64.3058 41.8976C64.3346 41.9164 64.349 41.9447 64.349 41.9823C64.349 41.9917 64.3442 42.0059 64.3346 42.0247C64.3298 42.0388 64.3226 42.0529 64.313 42.0671L63.2331 43.6279L64.457 45.337C64.481 45.3653 64.4929 45.3959 64.4929 45.4288C64.4929 45.4665 64.4786 45.4947 64.4498 45.5136C64.4258 45.5324 64.3922 45.5418 64.349 45.5418H63.9098C63.8666 45.5418 63.8306 45.5324 63.8018 45.5136C63.773 45.4947 63.7467 45.4688 63.7227 45.4359L62.6644 43.9598H62.0021V45.3794C62.0021 45.4265 61.9853 45.4665 61.9517 45.4994C61.9229 45.5277 61.8845 45.5418 61.8365 45.5418H61.4981Z" fill="white"/>
</svg>
