<svg width="192" height="192" viewBox="0 0 192 192" fill="none" xmlns="http://www.w3.org/2000/svg">
<path fill-rule="evenodd" clip-rule="evenodd" d="M31.7382 41H160.592C162.643 41 164.573 41.4824 166.322 42.2922L116.072 92.711C116.072 92.7114 116.071 92.7118 116.071 92.7122C116.07 92.713 116.068 92.7138 116.067 92.7146C116.064 92.7166 116.061 92.7183 116.061 92.7183L116.058 92.7231L116.054 92.729L99.7177 109.12C97.9821 110.855 94.348 110.855 92.6124 109.12L76.2728 92.7262C76.2728 92.7262 76.2722 92.7217 76.2689 92.7183C76.2655 92.7149 76.2615 92.7143 76.2582 92.711L26.0063 42.2924C27.7563 41.483 29.6863 41 31.7382 41ZM106.203 115.587L119.297 102.449L166.323 149.629C164.573 150.439 162.644 150.922 160.592 150.922H31.7388C29.6869 150.922 27.7569 150.439 26.0063 149.629L73.0335 102.449L86.1273 115.587C91.5516 121.03 100.894 120.915 106.203 115.587ZM19.4614 48.6982C18.5557 50.5296 18 52.5626 18 54.7403V137.182C18 139.359 18.5551 141.393 19.4611 143.224L66.5696 95.9626L19.4614 48.6982ZM125.75 95.9622L172.859 48.6973C173.765 50.5286 174.32 52.5616 174.32 54.7399V137.181C174.32 139.359 173.765 141.393 172.859 143.224L125.75 95.9622Z" fill="black"/>
</svg>
