<svg width="192" height="192" viewBox="0 0 192 192" fill="none" xmlns="http://www.w3.org/2000/svg">
<path fill-rule="evenodd" clip-rule="evenodd" d="M31.5721 27C31.5731 27 31.5741 27 31.575 27H160.428C163.337 27.0009 166.184 27.848 168.621 29.4381C171.057 31.0282 172.979 33.2926 174.151 35.9555C175.324 38.6184 175.696 41.5648 175.224 44.4357C174.753 47.3003 173.46 49.9664 171.503 52.1106C171.499 52.1154 171.495 52.1202 171.49 52.125L123 105.487V146.743C123.014 149.238 122.403 151.696 121.223 153.894C120.044 156.087 118.335 157.951 116.253 159.315L92.2869 175.267L92.2505 175.291C89.9998 176.774 87.3913 177.622 84.6992 177.748C82.0072 177.874 79.331 177.272 76.952 176.005C74.573 174.739 72.579 172.855 71.1798 170.552C69.7806 168.249 69.0278 165.611 69.0005 162.916C69.0002 162.886 69 162.855 69 162.825V105.487L20.5096 52.125C20.5055 52.1205 20.5014 52.116 20.4973 52.1115C18.5403 49.9671 17.2475 47.3007 16.776 44.4357C16.3035 41.5648 16.6762 38.6184 17.8487 35.9555C19.0212 33.2926 20.9428 31.0282 23.3794 29.4381C25.8161 27.848 28.6626 27.0009 31.5721 27ZM38.3567 45L83.0535 94.1868C85.6118 96.9536 87.0229 100.59 87 104.359V157.163L105 145.182V104.358C104.977 100.59 106.388 96.9534 108.947 94.1869L153.643 45H38.3567Z" fill="black"/>
</svg>
