<svg width="192" height="192" viewBox="0 0 192 192" fill="none" xmlns="http://www.w3.org/2000/svg">
<path d="M171.375 37.125C170.441 35.0008 168.908 33.1953 166.963 31.9297C165.018 30.6641 162.746 29.9935 160.425 30H31.575C29.2552 30.0187 26.9898 30.7053 25.0499 31.9776C23.11 33.2499 21.5777 35.0541 20.6362 37.1744C19.6947 39.2947 19.384 41.6413 19.7411 43.9335C20.0983 46.2258 21.1082 48.3667 22.6501 50.1L72 104.325V162.825C71.9964 165.002 72.5885 167.138 73.7122 169.002C74.836 170.866 76.4485 172.387 78.375 173.4C80.1096 174.317 82.0382 174.805 84 174.825C86.3765 174.826 88.6996 174.121 90.675 172.8L114.675 156.75C116.319 155.658 117.666 154.175 118.595 152.434C119.524 150.693 120.007 148.748 120 146.775V104.325L169.35 50.1C170.92 48.3729 171.949 46.2228 172.309 43.9164C172.669 41.61 172.345 39.2486 171.375 37.125V37.125Z" fill="black"/>
</svg>
