<svg width="192" height="192" viewBox="0 0 192 192" fill="none" xmlns="http://www.w3.org/2000/svg">
<path d="M166.5 118.8L131.325 103.8C129.51 102.987 127.518 102.649 125.536 102.82C123.555 102.99 121.649 103.663 120 104.775L101.175 117.3C89.7019 111.728 80.4126 102.491 74.775 91.0501V91.0501L87.225 72.0001C88.3293 70.3491 89.0038 68.4485 89.1871 66.4708C89.3705 64.4931 89.057 62.5009 88.275 60.6751L73.2 25.5001C72.1481 23.1249 70.3669 21.1466 68.1148 19.852C65.8628 18.5574 63.2568 18.0138 60.675 18.3001C50.5469 19.6268 41.2453 24.5864 34.4994 32.2565C27.7536 39.9266 24.0225 49.7855 24 60.0001C24 119.55 72.45 168 132 168C142.215 167.978 152.073 164.247 159.744 157.501C167.414 150.755 172.373 141.453 173.7 131.325C173.986 128.743 173.443 126.137 172.148 123.885C170.853 121.633 168.875 119.852 166.5 118.8Z" fill="black"/>
</svg>
