<svg width="192" height="192" viewBox="0 0 192 192" fill="none" xmlns="http://www.w3.org/2000/svg">
<path fill-rule="evenodd" clip-rule="evenodd" d="M87 33C57.1766 33 33 57.1766 33 87C33 116.823 57.1766 141 87 141C116.823 141 141 116.823 141 87C141 57.1766 116.823 33 87 33ZM15 87C15 47.2355 47.2355 15 87 15C126.765 15 159 47.2355 159 87C159 126.765 126.765 159 87 159C47.2355 159 15 126.765 15 87Z" fill="black"/>
<path fill-rule="evenodd" clip-rule="evenodd" d="M125.186 125.186C128.701 121.671 134.399 121.671 137.914 125.186L174.364 161.636C177.879 165.151 177.879 170.849 174.364 174.364C170.849 177.879 165.151 177.879 161.636 174.364L125.186 137.914C121.671 134.399 121.671 128.701 125.186 125.186Z" fill="black"/>
</svg>
