<svg width="192" height="192" viewBox="0 0 192 192" fill="none" xmlns="http://www.w3.org/2000/svg">
<path d="M172.632 54.8401C173.752 51.1201 172.632 48.3921 167.336 48.3921H149.792C145.328 48.3921 143.288 50.7521 142.168 53.3441C142.168 53.3441 133.248 75.0961 120.608 89.2001C116.528 93.3041 114.664 94.6001 112.44 94.6001C111.328 94.6001 109.712 93.3041 109.712 89.5841V54.8401C109.712 50.3761 108.424 48.3921 104.704 48.3921H77.136C74.352 48.3921 72.672 50.4561 72.672 52.4241C72.672 56.6481 78.992 57.6241 79.64 69.5281V95.3521C79.64 101.008 78.624 102.04 76.384 102.04C70.44 102.04 55.976 80.2081 47.392 55.2161C45.72 50.3601 44.032 48.4001 39.552 48.4001H22.016C17 48.4001 16 50.7601 16 53.3521C16 58.0081 21.944 81.0481 43.688 111.52C58.184 132.328 78.592 143.608 97.184 143.608C108.328 143.608 109.704 141.104 109.704 136.784V121.056C109.704 116.048 110.768 115.04 114.296 115.04C116.888 115.04 121.352 116.352 131.76 126.376C143.648 138.264 145.616 143.6 152.296 143.6H169.832C174.84 143.6 177.344 141.096 175.904 136.152C174.328 131.232 168.648 124.072 161.112 115.6C157.016 110.768 150.896 105.568 149.032 102.968C146.432 99.6161 147.184 98.1361 149.032 95.1601C149.04 95.1681 170.408 65.0721 172.632 54.8401V54.8401Z" fill="black"/>
</svg>
