<svg width="69" height="44" viewBox="0 0 69 44" fill="none" xmlns="http://www.w3.org/2000/svg">
<g clip-path="url(#clip0_497_21190)">
<path d="M11.1026 29.6298C11.9796 29.6298 12.6906 28.2764 12.6906 26.6069C12.6906 24.9374 11.9796 23.584 11.1026 23.584C10.2256 23.584 9.51465 24.9374 9.51465 26.6069C9.51465 28.2764 10.2256 29.6298 11.1026 29.6298Z" fill="#008F53"/>
<path d="M11.1026 29.6298C11.9796 29.6298 12.6906 28.2764 12.6906 26.6069C12.6906 24.9374 11.9796 23.584 11.1026 23.584C10.2256 23.584 9.51465 24.9374 9.51465 26.6069C9.51465 28.2764 10.2256 29.6298 11.1026 29.6298Z" fill="url(#paint0_linear_497_21190)" fill-opacity="0.6"/>
<path d="M57.292 29.7673C58.0546 29.7673 58.6728 28.5984 58.6728 27.1566C58.6728 25.7147 58.0546 24.5459 57.292 24.5459C56.5294 24.5459 55.9111 25.7147 55.9111 27.1566C55.9111 28.5984 56.5294 29.7673 57.292 29.7673Z" fill="#008F53"/>
<path d="M57.292 29.7673C58.0546 29.7673 58.6728 28.5984 58.6728 27.1566C58.6728 25.7147 58.0546 24.5459 57.292 24.5459C56.5294 24.5459 55.9111 25.7147 55.9111 27.1566C55.9111 28.5984 56.5294 29.7673 57.292 29.7673Z" fill="url(#paint1_linear_497_21190)" fill-opacity="0.6"/>
<path d="M31.7463 21.6603L29.2607 13.7595L44.1048 0.5L31.7463 21.6603Z" fill="#008F53"/>
<path d="M31.7463 21.6603L29.2607 13.7595L44.1048 0.5L31.7463 21.6603Z" fill="url(#paint2_linear_497_21190)" fill-opacity="0.6"/>
<path d="M17.6616 10.0496L29.2607 13.7595L31.7463 21.729L23.5993 22.0038L17.6616 10.0496Z" fill="#008F53"/>
<path d="M17.6616 10.0496L29.2607 13.7595L31.7463 21.729L23.5993 22.0038L17.6616 10.0496Z" fill="url(#paint3_linear_497_21190)" fill-opacity="0.6"/>
<path d="M17.3855 11.9732L16.8331 10.5991L13.4501 23.0342L17.3855 11.9732Z" fill="#008F53"/>
<path d="M17.3855 11.9732L16.8331 10.5991L13.4501 23.0342L17.3855 11.9732Z" fill="url(#paint4_linear_497_21190)" fill-opacity="0.6"/>
<path d="M43.6216 2.83597L44.5882 1.11841L52.1828 21.6604L43.6216 2.83597Z" fill="#008F53"/>
<path d="M43.6216 2.83597L44.5882 1.11841L52.1828 21.6604L43.6216 2.83597Z" fill="url(#paint5_linear_497_21190)" fill-opacity="0.6"/>
<path d="M18.4264 19.7193L18.4264 19.7193C19.1828 19.6409 19.84 20.2311 19.84 20.9865V25.6824H16.726V21.0436C16.726 20.3916 17.2212 19.8442 17.8741 19.7765C17.8741 19.7765 17.8741 19.7765 17.8741 19.7765L18.4264 19.7193Z" fill="#323232" stroke="#323232" stroke-width="0.2"/>
<path d="M18.214 19.668V25.7825" stroke="white" stroke-width="0.2"/>
<path d="M19.94 21.6604H16.626" stroke="white" stroke-width="0.2"/>
<path d="M19.94 23.0344H16.626" stroke="white" stroke-width="0.2"/>
<path d="M19.94 24.4084H16.626" stroke="white" stroke-width="0.2"/>
<path d="M40.2385 16.92C40.2385 15.5919 41.3204 14.5154 42.655 14.5154C43.9896 14.5154 45.0715 15.5919 45.0715 16.92V23.8589L40.2385 23.3428V16.92Z" fill="#323232"/>
<path d="M45.0532 18.1081L40.2567 17.5178" stroke="white" stroke-width="0.2"/>
<path d="M42.5859 23.4467V14.5154" stroke="white" stroke-width="0.2"/>
<path d="M45.0532 20.9936L40.2568 20.4031" stroke="white" stroke-width="0.2"/>
<path fill-rule="evenodd" clip-rule="evenodd" d="M51.1472 18.1565L53.3565 23.2404H50.2496V26.9288C50.9514 28.0868 51.9294 28.8053 53.0113 28.8053C55.1467 28.8053 56.8777 26.0063 56.8777 22.5534C56.8777 19.1006 55.1467 16.3015 53.0113 16.3015C52.2035 16.3015 51.4536 16.702 50.8335 17.387L51.1472 18.1565Z" fill="#008F53"/>
<path fill-rule="evenodd" clip-rule="evenodd" d="M51.1472 18.1565L53.3565 23.2404H50.2496V26.9288C50.9514 28.0868 51.9294 28.8053 53.0113 28.8053C55.1467 28.8053 56.8777 26.0063 56.8777 22.5534C56.8777 19.1006 55.1467 16.3015 53.0113 16.3015C52.2035 16.3015 51.4536 16.702 50.8335 17.387L51.1472 18.1565Z" fill="url(#paint6_linear_497_21190)" fill-opacity="0.6"/>
<path fill-rule="evenodd" clip-rule="evenodd" d="M13.9334 24.6851C13.0884 24.7336 12.4144 25.6676 12.4144 26.8129C12.4144 27.9582 13.0884 28.8922 13.9334 28.9408V24.6851Z" fill="#008F53"/>
<path fill-rule="evenodd" clip-rule="evenodd" d="M13.9334 24.6851C13.0884 24.7336 12.4144 25.6676 12.4144 26.8129C12.4144 27.9582 13.0884 28.8922 13.9334 28.9408V24.6851Z" fill="url(#paint7_linear_497_21190)" fill-opacity="0.6"/>
<path d="M34.2354 27.01C48.2003 26.6674 60.4124 30.5829 60.4124 30.5829C60.4124 30.5829 49.9533 28.1968 34.2354 28.2336C18.6929 28.27 8 30.5829 8 30.5829C8 30.5829 19.7446 26.8142 34.2354 27.01Z" fill="#323232"/>
<path d="M12.1417 42.5518C12.1039 42.5518 12.0699 42.5386 12.0397 42.5121C12.0132 42.4856 12 42.4515 12 42.4099V40.9909C12 40.953 12.0132 40.9209 12.0397 40.8944C12.0699 40.8641 12.1039 40.849 12.1417 40.849H12.2438C12.3382 40.849 12.4157 40.8054 12.4762 40.7184C12.5366 40.6314 12.5858 40.5103 12.6236 40.3551C12.6614 40.1962 12.6878 40.0089 12.7029 39.7932C12.718 39.5737 12.7256 39.3353 12.7256 39.078V37.9257C12.7256 37.8841 12.7388 37.85 12.7653 37.8235C12.7955 37.7971 12.8295 37.7838 12.8673 37.7838H15.5317C15.5732 37.7838 15.6073 37.7971 15.6337 37.8235C15.6602 37.85 15.6734 37.8841 15.6734 37.9257V40.849H15.9398C15.9814 40.849 16.0154 40.8641 16.0419 40.8944C16.0721 40.9209 16.0872 40.953 16.0872 40.9909V42.4099C16.0872 42.4478 16.0721 42.4799 16.0419 42.5064C16.0154 42.5367 15.9814 42.5518 15.9398 42.5518H15.2085C15.167 42.5518 15.133 42.5367 15.1065 42.5064C15.0801 42.4799 15.0668 42.4478 15.0668 42.4099V41.7571H13.0204V42.4099C13.0204 42.4478 13.0072 42.4799 12.9807 42.5064C12.9542 42.5367 12.9202 42.5518 12.8787 42.5518H12.1417ZM13.4512 40.849H14.6587V38.692H13.712V39.2085C13.712 39.6097 13.6893 39.9446 13.644 40.2132C13.5986 40.4781 13.5344 40.69 13.4512 40.849Z" fill="#323232"/>
<path d="M17.9989 41.8139C17.6814 41.8139 17.4131 41.7628 17.1939 41.6607C16.9785 41.5585 16.8122 41.4128 16.6951 41.2236C16.5817 41.0306 16.5174 40.8017 16.5023 40.5368C16.4985 40.4611 16.4967 40.3759 16.4967 40.2813C16.4967 40.183 16.4985 40.0978 16.5023 40.0259C16.5174 39.7572 16.5855 39.5283 16.7064 39.3391C16.8273 39.1499 16.9955 39.0042 17.2109 38.902C17.4301 38.7998 17.6928 38.7488 17.9989 38.7488C18.3088 38.7488 18.5714 38.7998 18.7868 38.902C19.006 39.0042 19.1761 39.1499 19.297 39.3391C19.418 39.5283 19.486 39.7572 19.5011 40.0259C19.5049 40.0978 19.5068 40.183 19.5068 40.2813C19.5068 40.3759 19.5049 40.4611 19.5011 40.5368C19.486 40.8017 19.4199 41.0306 19.3027 41.2236C19.1893 41.4128 19.0231 41.5585 18.8039 41.6607C18.5884 41.7628 18.3201 41.8139 17.9989 41.8139ZM17.9989 41.1214C18.1689 41.1214 18.2918 41.0703 18.3674 40.9682C18.4467 40.866 18.4921 40.7127 18.5034 40.5084C18.5072 40.4516 18.5091 40.3759 18.5091 40.2813C18.5091 40.1867 18.5072 40.1111 18.5034 40.0543C18.4921 39.8537 18.4467 39.7024 18.3674 39.6002C18.2918 39.4942 18.1689 39.4413 17.9989 39.4413C17.8326 39.4413 17.7098 39.4942 17.6304 39.6002C17.551 39.7024 17.5076 39.8537 17.5 40.0543C17.4963 40.1111 17.4944 40.1867 17.4944 40.2813C17.4944 40.3759 17.4963 40.4516 17.5 40.5084C17.5076 40.7127 17.551 40.866 17.6304 40.9682C17.7098 41.0703 17.8326 41.1214 17.9989 41.1214Z" fill="#323232"/>
<path d="M21.4192 41.8139C21.1395 41.8139 20.892 41.7628 20.6766 41.6607C20.4611 41.5585 20.2892 41.4109 20.1607 41.2179C20.036 41.0211 19.968 40.7865 19.9566 40.5141C19.9528 40.4535 19.9509 40.3778 19.9509 40.287C19.9509 40.1924 19.9528 40.1148 19.9566 40.0543C19.968 39.778 20.036 39.5434 20.1607 39.3504C20.2854 39.1537 20.4555 39.0042 20.6709 38.902C20.8901 38.7998 21.1395 38.7488 21.4192 38.7488C21.6799 38.7488 21.9029 38.7866 22.0881 38.8623C22.2733 38.9342 22.4244 39.025 22.5416 39.1347C22.6587 39.2445 22.7457 39.358 22.8024 39.4753C22.8628 39.5888 22.8949 39.6891 22.8987 39.7762C22.9025 39.814 22.8893 39.8481 22.859 39.8783C22.8288 39.9048 22.7948 39.9181 22.757 39.9181H22.0371C21.9955 39.9181 21.9634 39.9086 21.9407 39.8897C21.918 39.8708 21.8972 39.8424 21.8783 39.8045C21.833 39.6872 21.7744 39.604 21.7026 39.5548C21.6346 39.5056 21.5458 39.481 21.4362 39.481C21.285 39.481 21.1679 39.5302 21.0847 39.6286C21.0053 39.727 20.9619 39.8783 20.9543 40.0827C20.9505 40.234 20.9505 40.3684 20.9543 40.4857C20.9619 40.6938 21.0053 40.8452 21.0847 40.9398C21.1679 41.0344 21.285 41.0817 21.4362 41.0817C21.5533 41.0817 21.6459 41.0571 21.7139 41.0079C21.782 40.9587 21.8368 40.8754 21.8783 40.7581C21.8972 40.7203 21.918 40.6919 21.9407 40.673C21.9634 40.6541 21.9955 40.6446 22.0371 40.6446H22.757C22.7948 40.6446 22.8288 40.6598 22.859 40.69C22.8893 40.7165 22.9025 40.7487 22.8987 40.7865C22.8949 40.8508 22.8761 40.9265 22.842 41.0136C22.808 41.0968 22.7551 41.1857 22.6833 41.2803C22.6115 41.375 22.517 41.4639 22.3999 41.5471C22.2865 41.6266 22.1486 41.6909 21.9861 41.7401C21.8235 41.7893 21.6346 41.8139 21.4192 41.8139Z" fill="#323232"/>
<path d="M24.298 41.7571C24.2602 41.7571 24.2262 41.7439 24.196 41.7174C24.1695 41.6909 24.1563 41.6569 24.1563 41.6152V39.5491H23.2947C23.2569 39.5491 23.2229 39.5359 23.1926 39.5094C23.1662 39.4829 23.1529 39.4488 23.1529 39.4072V38.9474C23.1529 38.9058 23.1662 38.8717 23.1926 38.8453C23.2229 38.8188 23.2569 38.8055 23.2947 38.8055H25.959C25.9968 38.8055 26.0289 38.8188 26.0554 38.8453C26.0856 38.8717 26.1007 38.9058 26.1007 38.9474V39.4072C26.1007 39.4488 26.0856 39.4829 26.0554 39.5094C26.0289 39.5359 25.9968 39.5491 25.959 39.5491H25.0973V41.6152C25.0973 41.6569 25.0841 41.6909 25.0577 41.7174C25.0312 41.7439 24.9972 41.7571 24.9556 41.7571H24.298Z" fill="#323232"/>
<path d="M26.7971 42.8413C26.7556 42.8413 26.7197 42.8262 26.6894 42.7959C26.663 42.7694 26.6498 42.7372 26.6498 42.6994V42.2396C26.6498 42.198 26.663 42.1639 26.6894 42.1375C26.7197 42.111 26.7556 42.0977 26.7971 42.0977H26.9899C27.0617 42.0977 27.1203 42.0845 27.1656 42.058C27.211 42.0315 27.2506 41.988 27.2847 41.9274C27.3225 41.8707 27.3621 41.7912 27.4037 41.689L28.5375 38.9247C28.5488 38.8907 28.5677 38.8623 28.5942 38.8396C28.6206 38.8169 28.6584 38.8055 28.7075 38.8055H29.3141C29.3481 38.8055 29.3765 38.8188 29.3991 38.8453C29.4256 38.868 29.4388 38.8945 29.4388 38.9247C29.4388 38.9323 29.4369 38.9436 29.4331 38.9588C29.4331 38.9701 29.4294 38.9834 29.4218 38.9985L28.3447 41.5982C28.2691 41.7836 28.1898 41.952 28.1066 42.1034C28.0273 42.2548 27.9404 42.3853 27.8459 42.4951C27.7514 42.6086 27.6399 42.6937 27.5114 42.7505C27.3867 42.811 27.2412 42.8413 27.0749 42.8413H26.7971ZM27.4661 41.6947L26.304 38.9985C26.2926 38.972 26.287 38.9493 26.287 38.9304C26.2945 38.8963 26.3096 38.868 26.3323 38.8453C26.355 38.8188 26.3852 38.8055 26.423 38.8055H27.0579C27.107 38.8055 27.1429 38.8188 27.1656 38.8453C27.1921 38.868 27.211 38.8945 27.2223 38.9247L28.0329 41.0022L27.4661 41.6947Z" fill="#323232"/>
<path d="M30.0157 41.7571C29.9742 41.7571 29.9402 41.7439 29.9137 41.7174C29.8873 41.6909 29.874 41.6569 29.874 41.6152V38.9474C29.874 38.9058 29.8873 38.8717 29.9137 38.8453C29.9402 38.8188 29.9742 38.8055 30.0157 38.8055H32.6121C32.6536 38.8055 32.6876 38.8188 32.7141 38.8453C32.7406 38.8717 32.7538 38.9058 32.7538 38.9474V41.6152C32.7538 41.6569 32.7406 41.6909 32.7141 41.7174C32.6876 41.7439 32.6536 41.7571 32.6121 41.7571H31.9431C31.9053 41.7571 31.8713 41.7439 31.8411 41.7174C31.8146 41.6909 31.8014 41.6569 31.8014 41.6152V39.5491H30.8264V41.6152C30.8264 41.6569 30.8113 41.6909 30.781 41.7174C30.7546 41.7439 30.7225 41.7571 30.6847 41.7571H30.0157Z" fill="#323232"/>
<path d="M33.5864 41.7571C33.5449 41.7571 33.5108 41.7439 33.4844 41.7174C33.4579 41.6909 33.4447 41.6569 33.4447 41.6152V38.9474C33.4447 38.9058 33.4579 38.8717 33.4844 38.8453C33.5108 38.8188 33.5449 38.8055 33.5864 38.8055H34.2553C34.2931 38.8055 34.3253 38.8188 34.3517 38.8453C34.382 38.8717 34.3971 38.9058 34.3971 38.9474V39.8897H35.4175V38.9474C35.4175 38.9058 35.4307 38.8717 35.4571 38.8453C35.4836 38.8188 35.5176 38.8055 35.5592 38.8055H36.2281C36.2659 38.8055 36.298 38.8188 36.3245 38.8453C36.3547 38.8717 36.3698 38.9058 36.3698 38.9474V41.6152C36.3698 41.6569 36.3547 41.6909 36.3245 41.7174C36.298 41.7439 36.2659 41.7571 36.2281 41.7571H35.5592C35.5176 41.7571 35.4836 41.7439 35.4571 41.7174C35.4307 41.6909 35.4175 41.6569 35.4175 41.6152V40.6333H34.3971V41.6152C34.3971 41.6569 34.382 41.6909 34.3517 41.7174C34.3253 41.7439 34.2931 41.7571 34.2553 41.7571H33.5864Z" fill="#323232"/>
<path d="M37.2014 41.7571C37.1598 41.7571 37.1258 41.7439 37.0994 41.7174C37.0729 41.6909 37.0597 41.6569 37.0597 41.6152V38.9474C37.0597 38.9058 37.0729 38.8717 37.0994 38.8453C37.1258 38.8188 37.1598 38.8055 37.2014 38.8055H37.8703C37.9119 38.8055 37.9459 38.8188 37.9724 38.8453C38.0026 38.8717 38.0177 38.9058 38.0177 38.9474V39.7137H38.5336C38.9153 39.7137 39.2101 39.8064 39.4179 39.9919C39.6258 40.1735 39.7297 40.4251 39.7297 40.7468C39.7297 41.076 39.6201 41.3277 39.4009 41.5017C39.1855 41.672 38.885 41.7571 38.4996 41.7571H37.2014ZM37.995 41.1044H38.4485C38.5959 41.1044 38.7036 41.0779 38.7717 41.0249C38.8397 40.9682 38.8737 40.8754 38.8737 40.7468C38.8737 40.6181 38.8397 40.5216 38.7717 40.4573C38.7074 40.393 38.5997 40.3608 38.4485 40.3608H37.995V41.1044ZM40.2172 41.7571C40.1794 41.7571 40.1454 41.7439 40.1152 41.7174C40.0887 41.6909 40.0755 41.6569 40.0755 41.6152V38.9474C40.0755 38.9058 40.0887 38.8717 40.1152 38.8453C40.1454 38.8188 40.1794 38.8055 40.2172 38.8055H40.8918C40.9296 38.8055 40.9617 38.8188 40.9882 38.8453C41.0184 38.8717 41.0335 38.9058 41.0335 38.9474V41.6152C41.0335 41.6569 41.0184 41.6909 40.9882 41.7174C40.9617 41.7439 40.9296 41.7571 40.8918 41.7571H40.2172Z" fill="#323232"/>
<path d="M41.8625 41.7571C41.8247 41.7571 41.7926 41.7439 41.7662 41.7174C41.7397 41.6909 41.7265 41.6588 41.7265 41.6209V38.9474C41.7265 38.9058 41.7397 38.8717 41.7662 38.8453C41.7926 38.8188 41.8266 38.8055 41.8682 38.8055H42.5371C42.5749 38.8055 42.607 38.8188 42.6335 38.8453C42.6637 38.8717 42.6788 38.9058 42.6788 38.9474V41.0192L42.4237 40.8944L43.8239 38.8963C43.8428 38.8699 43.8655 38.849 43.892 38.8339C43.9184 38.815 43.9487 38.8055 43.9827 38.8055H44.5892C44.627 38.8055 44.6591 38.8188 44.6856 38.8453C44.7121 38.8717 44.7253 38.9039 44.7253 38.9418V41.6152C44.7253 41.6569 44.7121 41.6909 44.6856 41.7174C44.6591 41.7439 44.6251 41.7571 44.5836 41.7571H43.9146C43.8731 41.7571 43.8391 41.7439 43.8126 41.7174C43.7862 41.6909 43.7729 41.6569 43.7729 41.6152V39.6059L44.0337 39.657L42.6222 41.6663C42.607 41.6928 42.5863 41.7155 42.5598 41.7344C42.5333 41.7496 42.5012 41.7571 42.4634 41.7571H41.8625ZM43.2684 38.4195C43.0341 38.4195 42.8432 38.3836 42.6959 38.3117C42.5485 38.2398 42.4408 38.1414 42.3727 38.0165C42.3085 37.8917 42.2764 37.7554 42.2764 37.6078C42.2764 37.5776 42.2839 37.553 42.299 37.5341C42.3179 37.5114 42.3463 37.5 42.3841 37.5H42.8376C42.8716 37.5 42.898 37.5114 42.9169 37.5341C42.9358 37.553 42.9453 37.5776 42.9453 37.6078C42.9453 37.6873 42.9661 37.7573 43.0076 37.8179C43.053 37.8784 43.1399 37.9087 43.2684 37.9087C43.4007 37.9087 43.4876 37.8784 43.5292 37.8179C43.5745 37.7573 43.5972 37.6873 43.5972 37.6078C43.5972 37.5776 43.6066 37.553 43.6255 37.5341C43.6444 37.5114 43.6709 37.5 43.7049 37.5H44.1584C44.1924 37.5 44.2189 37.5114 44.2378 37.5341C44.2567 37.553 44.2661 37.5776 44.2661 37.6078C44.2661 37.7554 44.2321 37.8917 44.1641 38.0165C44.0998 38.1414 43.994 38.2398 43.8466 38.3117C43.6992 38.3836 43.5065 38.4195 43.2684 38.4195Z" fill="#323232"/>
<path d="M46.4859 42.3815C46.4481 42.3815 46.4141 42.3683 46.3839 42.3418C46.3574 42.3153 46.3442 42.2813 46.3442 42.2396V41.1555C46.3442 41.1138 46.3574 41.0798 46.3839 41.0533C46.4141 41.0268 46.4481 41.0136 46.4859 41.0136H46.5426C46.6409 41.0136 46.7165 40.9644 46.7694 40.866C46.8261 40.7676 46.8639 40.6257 46.8828 40.4403C46.9054 40.2511 46.9168 40.0202 46.9168 39.7478V38.9474C46.9168 38.9058 46.93 38.8717 46.9565 38.8453C46.9867 38.8188 47.0207 38.8055 47.0585 38.8055H49.2863C49.3279 38.8055 49.3619 38.8188 49.3884 38.8453C49.4148 38.8717 49.428 38.9058 49.428 38.9474V41.0079H49.6718C49.7134 41.0079 49.7474 41.023 49.7738 41.0533C49.8003 41.0798 49.8135 41.112 49.8135 41.1498V42.2396C49.8135 42.2813 49.8003 42.3153 49.7738 42.3418C49.7474 42.3683 49.7134 42.3815 49.6718 42.3815H49.0029C48.9613 42.3815 48.9273 42.3683 48.9009 42.3418C48.8744 42.3153 48.8612 42.2813 48.8612 42.2396V41.7571H47.3022V42.2396C47.3022 42.2813 47.2871 42.3153 47.2569 42.3418C47.2304 42.3683 47.1964 42.3815 47.1549 42.3815H46.4859ZM47.6254 41.0136L48.4757 41.0079V39.5491H47.8294V39.8499C47.8294 40.1338 47.8106 40.3722 47.7728 40.5651C47.7387 40.7544 47.6896 40.9038 47.6254 41.0136Z" fill="#323232"/>
<path d="M51.663 41.8139C51.3455 41.8139 51.0772 41.7628 50.858 41.6607C50.6426 41.5585 50.4763 41.4128 50.3591 41.2236C50.2458 41.0306 50.1815 40.8017 50.1664 40.5368C50.1626 40.4611 50.1607 40.3759 50.1607 40.2813C50.1607 40.183 50.1626 40.0978 50.1664 40.0259C50.1815 39.7572 50.2496 39.5283 50.3705 39.3391C50.4914 39.1499 50.6596 39.0042 50.875 38.902C51.0942 38.7998 51.3569 38.7488 51.663 38.7488C51.9729 38.7488 52.2355 38.7998 52.4509 38.902C52.6701 39.0042 52.8402 39.1499 52.9611 39.3391C53.0821 39.5283 53.1501 39.7572 53.1652 40.0259C53.169 40.0978 53.1709 40.183 53.1709 40.2813C53.1709 40.3759 53.169 40.4611 53.1652 40.5368C53.1501 40.8017 53.084 41.0306 52.9668 41.2236C52.8534 41.4128 52.6871 41.5585 52.4679 41.6607C52.2525 41.7628 51.9842 41.8139 51.663 41.8139ZM51.663 41.1214C51.833 41.1214 51.9559 41.0703 52.0315 40.9682C52.1108 40.866 52.1562 40.7127 52.1675 40.5084C52.1713 40.4516 52.1732 40.3759 52.1732 40.2813C52.1732 40.1867 52.1713 40.1111 52.1675 40.0543C52.1562 39.8537 52.1108 39.7024 52.0315 39.6002C51.9559 39.4942 51.833 39.4413 51.663 39.4413C51.4967 39.4413 51.3739 39.4942 51.2945 39.6002C51.2151 39.7024 51.1717 39.8537 51.1641 40.0543C51.1603 40.1111 51.1585 40.1867 51.1585 40.2813C51.1585 40.3759 51.1603 40.4516 51.1641 40.5084C51.1717 40.7127 51.2151 40.866 51.2945 40.9682C51.3739 41.0703 51.4967 41.1214 51.663 41.1214Z" fill="#323232"/>
<path d="M53.8418 41.7571C53.8116 41.7571 53.7851 41.7458 53.7624 41.7231C53.7398 41.7004 53.7284 41.672 53.7284 41.6379V38.9191C53.7284 38.8888 53.7398 38.8623 53.7624 38.8396C53.7851 38.8169 53.8116 38.8055 53.8418 38.8055H54.4937C54.5617 38.8055 54.6165 38.8396 54.6581 38.9077L55.4291 40.287L56.2057 38.9077C56.2473 38.8396 56.3021 38.8055 56.3701 38.8055H57.022C57.056 38.8055 57.0844 38.8169 57.107 38.8396C57.1297 38.8623 57.141 38.8888 57.141 38.9191V41.6379C57.141 41.672 57.1297 41.7004 57.107 41.7231C57.0844 41.7458 57.056 41.7571 57.022 41.7571H56.3191C56.285 41.7571 56.2567 41.7458 56.234 41.7231C56.2114 41.7004 56.2 41.672 56.2 41.6379V39.7875L56.4778 39.8499L55.7125 41.1895C55.6936 41.2236 55.6709 41.2539 55.6445 41.2803C55.6218 41.3031 55.5878 41.3144 55.5424 41.3144H55.3157C55.2779 41.3144 55.2458 41.3031 55.2193 41.2803C55.1929 41.2576 55.1683 41.2274 55.1456 41.1895L54.403 39.884L54.6638 39.8272V41.6379C54.6638 41.672 54.6524 41.7004 54.6298 41.7231C54.6071 41.7458 54.5787 41.7571 54.5447 41.7571H53.8418Z" fill="#323232"/>
<path d="M18.4463 35.5239C18.2194 35.5239 18.0185 35.4986 17.8436 35.4479C17.6687 35.3973 17.5217 35.3286 17.4026 35.2419C17.2836 35.1515 17.1887 35.0484 17.118 34.9328C17.051 34.8171 17.012 34.6923 17.0008 34.5586C16.9971 34.526 17.0064 34.5007 17.0287 34.4826C17.0547 34.4646 17.0845 34.4555 17.118 34.4555H17.3971C17.4306 34.4555 17.4603 34.4628 17.4864 34.4772C17.5161 34.4917 17.5385 34.5224 17.5533 34.5694C17.598 34.714 17.6947 34.8333 17.8436 34.9273C17.9924 35.0177 18.1915 35.0629 18.4408 35.0629C18.6156 35.0629 18.7738 35.0376 18.9152 34.987C19.0566 34.9328 19.1701 34.8568 19.2556 34.7592C19.3412 34.658 19.384 34.5369 19.384 34.3959C19.384 34.1826 19.304 34.0181 19.144 33.9024C18.9877 33.7831 18.7738 33.7234 18.5022 33.7234H18.1003C18.0631 33.7234 18.0333 33.7126 18.011 33.6909C17.9887 33.6656 17.9775 33.6349 17.9775 33.5987V33.4089C17.9775 33.3691 17.9887 33.3384 18.011 33.3167C18.0333 33.2914 18.0631 33.2787 18.1003 33.2787H18.4798C18.7105 33.2787 18.8966 33.2299 19.038 33.1323C19.1831 33.0347 19.2556 32.8792 19.2556 32.6659C19.2556 32.5466 19.2184 32.4436 19.144 32.3568C19.0733 32.2701 18.9784 32.2032 18.8594 32.1562C18.7403 32.1056 18.6063 32.0803 18.4575 32.0803C18.2305 32.0803 18.0408 32.12 17.8882 32.1996C17.7357 32.2791 17.6408 32.4074 17.6036 32.5846C17.5924 32.6244 17.5757 32.6533 17.5533 32.6714C17.531 32.6858 17.5031 32.6931 17.4696 32.6931H17.1682C17.1347 32.6931 17.105 32.6822 17.0789 32.6605C17.0566 32.6388 17.0473 32.6117 17.051 32.5792C17.0622 32.4418 17.1013 32.3153 17.1682 32.1996C17.2352 32.0803 17.3264 31.9772 17.4417 31.8905C17.5608 31.8037 17.7059 31.7368 17.8771 31.6898C18.0482 31.6428 18.2436 31.6193 18.4631 31.6193C18.7645 31.6193 19.0138 31.6681 19.211 31.7657C19.4082 31.8633 19.557 31.9899 19.6575 32.1453C19.758 32.2972 19.8082 32.4617 19.8082 32.6388C19.8082 32.7473 19.7933 32.8539 19.7635 32.9588C19.7375 33.0636 19.691 33.1594 19.624 33.2462C19.5607 33.333 19.4733 33.4089 19.3617 33.474C19.4956 33.5354 19.6035 33.615 19.6854 33.7126C19.771 33.8066 19.8342 33.9132 19.8752 34.0325C19.9198 34.1482 19.9421 34.273 19.9421 34.4067C19.9421 34.6273 19.8807 34.8207 19.758 34.987C19.6389 35.1533 19.4677 35.2852 19.2445 35.3829C19.0212 35.4769 18.7552 35.5239 18.4463 35.5239Z" fill="#323232"/>
<path d="M21.4719 35.5239C21.2859 35.5239 21.1166 35.4877 20.964 35.4154C20.8115 35.3431 20.6887 35.2455 20.5957 35.1226C20.5026 34.9996 20.4561 34.8604 20.4561 34.705C20.4561 34.4555 20.5603 34.2567 20.7687 34.1085C20.9771 33.9602 21.2487 33.8626 21.5836 33.8156L22.4152 33.7017V33.5445C22.4152 33.3709 22.3631 33.2354 22.2589 33.1377C22.1584 33.0401 21.9928 32.9913 21.7622 32.9913C21.5947 32.9913 21.4589 33.0239 21.3547 33.0889C21.2543 33.154 21.1836 33.2372 21.1426 33.3384C21.1203 33.3926 21.0812 33.4197 21.0254 33.4197H20.7743C20.7333 33.4197 20.7017 33.4089 20.6794 33.3872C20.6608 33.3619 20.6515 33.333 20.6515 33.3004C20.6515 33.2462 20.6719 33.1793 20.7129 33.0998C20.7575 33.0202 20.8245 32.9425 20.9138 32.8666C21.0031 32.7907 21.1166 32.7274 21.2543 32.6768C21.3957 32.6226 21.5668 32.5954 21.7677 32.5954C21.991 32.5954 22.1789 32.6244 22.3314 32.6822C22.484 32.7364 22.6031 32.8106 22.6886 32.9046C22.7779 32.9986 22.8412 33.1052 22.8784 33.2245C22.9193 33.3438 22.9398 33.4649 22.9398 33.5879V35.3449C22.9398 35.3811 22.9268 35.4118 22.9007 35.4371C22.8784 35.4588 22.8486 35.4696 22.8114 35.4696H22.5547C22.5138 35.4696 22.4821 35.4588 22.4598 35.4371C22.4375 35.4118 22.4263 35.3811 22.4263 35.3449V35.1117C22.378 35.1768 22.3128 35.2419 22.231 35.3069C22.1491 35.3684 22.0468 35.4208 21.924 35.4642C21.8012 35.504 21.6505 35.5239 21.4719 35.5239ZM21.5891 35.1171C21.7417 35.1171 21.8812 35.0864 22.0077 35.0249C22.1342 34.9599 22.2328 34.8604 22.3035 34.7267C22.378 34.5929 22.4152 34.4248 22.4152 34.2223V34.0705L21.7677 34.1627C21.5036 34.1988 21.3045 34.2603 21.1705 34.3471C21.0366 34.4302 20.9696 34.5369 20.9696 34.667C20.9696 34.7683 20.9994 34.8532 21.0589 34.9219C21.1222 34.987 21.2003 35.0358 21.2933 35.0683C21.3901 35.1009 21.4887 35.1171 21.5891 35.1171Z" fill="#323232"/>
<path d="M24.9142 35.5239C24.65 35.5239 24.4212 35.4751 24.2277 35.3774C24.038 35.2762 23.891 35.1334 23.7868 34.949C23.6826 34.761 23.6268 34.5369 23.6194 34.2766C23.6156 34.2223 23.6138 34.15 23.6138 34.0597C23.6138 33.9693 23.6156 33.897 23.6194 33.8427C23.6268 33.5824 23.6826 33.3601 23.7868 33.1757C23.891 32.9877 24.038 32.8449 24.2277 32.7473C24.4212 32.6461 24.65 32.5954 24.9142 32.5954C25.13 32.5954 25.3142 32.6244 25.4668 32.6822C25.6231 32.7401 25.7514 32.8142 25.8519 32.9046C25.9523 32.9949 26.0268 33.0926 26.0751 33.1974C26.1272 33.3022 26.1551 33.4017 26.1589 33.4957C26.1626 33.5318 26.1514 33.5607 26.1254 33.5824C26.0993 33.6041 26.0677 33.615 26.0305 33.615H25.7626C25.7254 33.615 25.6975 33.6077 25.6789 33.5933C25.6603 33.5752 25.6417 33.5463 25.6231 33.5065C25.5561 33.3294 25.4649 33.2046 25.3496 33.1323C25.2342 33.06 25.091 33.0239 24.9198 33.0239C24.6966 33.0239 24.5142 33.0907 24.3728 33.2245C24.2352 33.3583 24.1608 33.5734 24.1496 33.8698C24.1459 34 24.1459 34.1265 24.1496 34.2495C24.1608 34.5495 24.2352 34.7664 24.3728 34.9002C24.5142 35.0304 24.6966 35.0954 24.9198 35.0954C25.091 35.0954 25.2342 35.0593 25.3496 34.987C25.4649 34.9147 25.5561 34.7899 25.6231 34.6128C25.6417 34.573 25.6603 34.5459 25.6789 34.5315C25.6975 34.5134 25.7254 34.5043 25.7626 34.5043H26.0305C26.0677 34.5043 26.0993 34.5152 26.1254 34.5369C26.1514 34.5586 26.1626 34.5875 26.1589 34.6236C26.1551 34.6996 26.1384 34.7773 26.1086 34.8568C26.0789 34.9364 26.0305 35.0177 25.9635 35.1009C25.9003 35.1804 25.8203 35.2527 25.7235 35.3178C25.6268 35.3792 25.5096 35.4299 25.3719 35.4696C25.2379 35.5058 25.0854 35.5239 24.9142 35.5239Z" fill="#323232"/>
<path d="M27.7091 35.4696C27.6719 35.4696 27.6403 35.4588 27.6142 35.4371C27.5919 35.4118 27.5807 35.3811 27.5807 35.3449V33.0835H26.6096C26.5724 33.0835 26.5408 33.0727 26.5147 33.051C26.4924 33.0257 26.4812 32.9949 26.4812 32.9588V32.7744C26.4812 32.7383 26.4924 32.7093 26.5147 32.6876C26.5408 32.6623 26.5724 32.6497 26.6096 32.6497H29.0654C29.1026 32.6497 29.1323 32.6623 29.1547 32.6876C29.1807 32.7093 29.1937 32.7383 29.1937 32.7744V32.9588C29.1937 32.9949 29.1807 33.0257 29.1547 33.051C29.1323 33.0727 29.1026 33.0835 29.0654 33.0835H28.0942V35.3449C28.0942 35.3811 28.083 35.4118 28.0607 35.4371C28.0384 35.4588 28.0068 35.4696 27.9658 35.4696H27.7091Z" fill="#323232"/>
<path d="M29.8117 36.5C29.7745 36.5 29.7428 36.4873 29.7168 36.462C29.6945 36.4403 29.6833 36.4114 29.6833 36.3753V32.7744C29.6833 32.7383 29.6945 32.7093 29.7168 32.6876C29.7428 32.6623 29.7745 32.6497 29.8117 32.6497H30.0684C30.1056 32.6497 30.1354 32.6623 30.1577 32.6876C30.1838 32.7093 30.1968 32.7383 30.1968 32.7744V33.013C30.2861 32.8937 30.4051 32.7943 30.554 32.7148C30.7028 32.6352 30.8889 32.5954 31.1121 32.5954C31.3205 32.5954 31.4972 32.6298 31.6423 32.6985C31.7912 32.7672 31.9121 32.8612 32.0051 32.9805C32.1019 33.0998 32.1744 33.2354 32.2228 33.3872C32.2712 33.539 32.2972 33.7017 32.3009 33.8753C32.3046 33.9331 32.3065 33.9946 32.3065 34.0597C32.3065 34.1247 32.3046 34.1862 32.3009 34.244C32.2972 34.414 32.2712 34.5766 32.2228 34.7321C32.1744 34.8839 32.1019 35.0195 32.0051 35.1388C31.9121 35.2545 31.7912 35.3485 31.6423 35.4208C31.4972 35.4895 31.3205 35.5239 31.1121 35.5239C30.8963 35.5239 30.714 35.4859 30.5651 35.41C30.42 35.3304 30.301 35.2328 30.2079 35.1171V36.3753C30.2079 36.4114 30.1968 36.4403 30.1745 36.462C30.1521 36.4873 30.1205 36.5 30.0796 36.5H29.8117ZM30.9949 35.0846C31.1884 35.0846 31.3391 35.0448 31.447 34.9653C31.5586 34.8821 31.6386 34.7755 31.687 34.6453C31.7354 34.5116 31.7633 34.3688 31.7707 34.2169C31.7744 34.1121 31.7744 34.0072 31.7707 33.9024C31.7633 33.7505 31.7354 33.6095 31.687 33.4794C31.6386 33.3456 31.5586 33.239 31.447 33.1594C31.3391 33.0763 31.1884 33.0347 30.9949 33.0347C30.8126 33.0347 30.6637 33.0763 30.5484 33.1594C30.4368 33.2426 30.3531 33.3492 30.2972 33.4794C30.2452 33.6059 30.2154 33.7361 30.2079 33.8698C30.2042 33.9277 30.2024 33.9964 30.2024 34.0759C30.2024 34.1555 30.2042 34.226 30.2079 34.2874C30.2117 34.414 30.2414 34.5387 30.2972 34.6616C30.3568 34.7845 30.4442 34.8858 30.5596 34.9653C30.6749 35.0448 30.82 35.0846 30.9949 35.0846Z" fill="#323232"/>
<path d="M34.1913 35.5239C33.9085 35.5239 33.6723 35.4714 33.4825 35.3666C33.2927 35.2617 33.1476 35.1171 33.0472 34.9328C32.9467 34.7448 32.8909 34.5315 32.8797 34.2928C32.876 34.2314 32.8741 34.1537 32.8741 34.0597C32.8741 33.962 32.876 33.8843 32.8797 33.8265C32.8909 33.5842 32.9467 33.3709 33.0472 33.1866C33.1513 33.0022 33.2983 32.8576 33.4881 32.7527C33.6778 32.6479 33.9123 32.5954 34.1913 32.5954C34.4704 32.5954 34.7048 32.6479 34.8946 32.7527C35.0843 32.8576 35.2294 33.0022 35.3299 33.1866C35.4341 33.3709 35.4918 33.5842 35.5029 33.8265C35.5066 33.8843 35.5085 33.962 35.5085 34.0597C35.5085 34.1537 35.5066 34.2314 35.5029 34.2928C35.4918 34.5315 35.4359 34.7448 35.3355 34.9328C35.235 35.1171 35.0899 35.2617 34.9001 35.3666C34.7104 35.4714 34.4741 35.5239 34.1913 35.5239ZM34.1913 35.1063C34.422 35.1063 34.6062 35.0358 34.7439 34.8948C34.8815 34.7502 34.956 34.5405 34.9671 34.2657C34.9708 34.2115 34.9727 34.1428 34.9727 34.0597C34.9727 33.9765 34.9708 33.9078 34.9671 33.8536C34.956 33.5788 34.8815 33.3709 34.7439 33.2299C34.6062 33.0853 34.422 33.013 34.1913 33.013C33.9606 33.013 33.7746 33.0853 33.6332 33.2299C33.4955 33.3709 33.423 33.5788 33.4155 33.8536C33.4118 33.9078 33.4099 33.9765 33.4099 34.0597C33.4099 34.1428 33.4118 34.2115 33.4155 34.2657C33.423 34.5405 33.4955 34.7502 33.6332 34.8948C33.7746 35.0358 33.9606 35.1063 34.1913 35.1063Z" fill="#323232"/>
<path d="M36.3302 35.4696C36.2967 35.4696 36.2669 35.4588 36.2409 35.4371C36.2185 35.4118 36.2074 35.3847 36.2074 35.3557V32.7744C36.2074 32.7383 36.2185 32.7093 36.2409 32.6876C36.2669 32.6623 36.2985 32.6497 36.3358 32.6497H36.6037C36.6409 32.6497 36.6706 32.6623 36.693 32.6876C36.7153 32.7093 36.7264 32.7383 36.7264 32.7744V35.0738L36.5813 34.9273L38.2725 32.731C38.2911 32.7093 38.3115 32.6913 38.3339 32.6768C38.3562 32.6587 38.3841 32.6497 38.4176 32.6497H38.6743C38.7041 32.6497 38.7301 32.6605 38.7525 32.6822C38.7785 32.7039 38.7915 32.7292 38.7915 32.7581V35.3449C38.7915 35.3811 38.7785 35.4118 38.7525 35.4371C38.7301 35.4588 38.7004 35.4696 38.6632 35.4696H38.4008C38.3599 35.4696 38.3283 35.4588 38.306 35.4371C38.2836 35.4118 38.2725 35.3811 38.2725 35.3449V33.1811L38.4287 33.1757L36.7264 35.3883C36.7116 35.4064 36.693 35.4244 36.6706 35.4425C36.6483 35.4606 36.6185 35.4696 36.5813 35.4696H36.3302ZM37.5134 32.2755C37.2976 32.2755 37.1283 32.243 37.0055 32.1779C36.8827 32.1128 36.7971 32.0296 36.7488 31.9284C36.7004 31.8236 36.6762 31.7151 36.6762 31.603C36.6762 31.5741 36.6837 31.5506 36.6985 31.5325C36.7171 31.5108 36.7451 31.5 36.7823 31.5H36.972C37.0055 31.5 37.0316 31.5108 37.0502 31.5325C37.0688 31.5506 37.0781 31.5741 37.0781 31.603C37.0781 31.6862 37.106 31.7639 37.1618 31.8362C37.2213 31.9049 37.3385 31.9393 37.5134 31.9393C37.692 31.9393 37.8092 31.9049 37.865 31.8362C37.9208 31.7639 37.9487 31.6862 37.9487 31.603C37.9487 31.5741 37.958 31.5506 37.9767 31.5325C37.9953 31.5108 38.0213 31.5 38.0548 31.5H38.2501C38.2836 31.5 38.3097 31.5108 38.3283 31.5325C38.3469 31.5506 38.3562 31.5741 38.3562 31.603C38.3562 31.7151 38.3301 31.8236 38.278 31.9284C38.2297 32.0296 38.1441 32.1128 38.0213 32.1779C37.8985 32.243 37.7292 32.2755 37.5134 32.2755Z" fill="#323232"/>
<path d="M43.1693 36.1529C43.1321 36.1529 43.1005 36.1421 43.0745 36.1204C43.0521 36.0987 43.041 36.068 43.041 36.0282V35.4696H39.7369C39.6996 35.4696 39.668 35.4588 39.642 35.4371C39.6196 35.4118 39.6085 35.3811 39.6085 35.3449V32.7744C39.6085 32.7383 39.6196 32.7093 39.642 32.6876C39.668 32.6623 39.6996 32.6497 39.7369 32.6497H39.9936C40.0308 32.6497 40.0606 32.6623 40.0829 32.6876C40.1089 32.7093 40.122 32.7383 40.122 32.7744V35.0358H41.1433V32.7744C41.1433 32.7383 41.1545 32.7093 41.1768 32.6876C41.2029 32.6623 41.2345 32.6497 41.2717 32.6497H41.5061C41.547 32.6497 41.5787 32.6623 41.601 32.6876C41.6233 32.7093 41.6345 32.7383 41.6345 32.7744V35.0358H42.6559V32.7744C42.6559 32.7383 42.667 32.7093 42.6894 32.6876C42.7154 32.6623 42.747 32.6497 42.7842 32.6497H43.041C43.0782 32.6497 43.1079 32.6623 43.1303 32.6876C43.1563 32.7093 43.1693 32.7383 43.1693 32.7744V35.0358H43.4372C43.4744 35.0358 43.5042 35.0484 43.5265 35.0738C43.5489 35.0954 43.56 35.1244 43.56 35.1605V36.0282C43.56 36.068 43.5489 36.0987 43.5265 36.1204C43.5042 36.1421 43.4744 36.1529 43.4372 36.1529H43.1693Z" fill="#323232"/>
<path d="M44.2715 35.4696C44.238 35.4696 44.2083 35.4588 44.1822 35.4371C44.1599 35.4118 44.1487 35.3847 44.1487 35.3557V32.7744C44.1487 32.7383 44.1599 32.7093 44.1822 32.6876C44.2083 32.6623 44.2399 32.6497 44.2771 32.6497H44.545C44.5822 32.6497 44.612 32.6623 44.6343 32.6876C44.6566 32.7093 44.6678 32.7383 44.6678 32.7744V35.0738L44.5227 34.9273L46.2138 32.731C46.2324 32.7093 46.2529 32.6913 46.2752 32.6768C46.2975 32.6587 46.3254 32.6497 46.3589 32.6497H46.6157C46.6454 32.6497 46.6715 32.6605 46.6938 32.6822C46.7198 32.7039 46.7329 32.7292 46.7329 32.7581V35.3449C46.7329 35.3811 46.7198 35.4118 46.6938 35.4371C46.6715 35.4588 46.6417 35.4696 46.6045 35.4696H46.3422C46.3012 35.4696 46.2696 35.4588 46.2473 35.4371C46.225 35.4118 46.2138 35.3811 46.2138 35.3449V33.1811L46.3701 33.1757L44.6678 35.3883C44.6529 35.4064 44.6343 35.4244 44.612 35.4425C44.5896 35.4606 44.5599 35.4696 44.5227 35.4696H44.2715Z" fill="#323232"/>
<path d="M47.6782 35.4696C47.641 35.4696 47.6094 35.4588 47.5833 35.4371C47.561 35.4118 47.5498 35.3811 47.5498 35.3449V32.7744C47.5498 32.7383 47.561 32.7093 47.5833 32.6876C47.6094 32.6623 47.641 32.6497 47.6782 32.6497H47.9405C47.9777 32.6497 48.0075 32.6623 48.0298 32.6876C48.0559 32.7093 48.0689 32.7383 48.0689 32.7744V33.8156H48.5768L49.3302 32.731C49.3489 32.7057 49.3693 32.6858 49.3916 32.6714C49.414 32.6569 49.4437 32.6497 49.4809 32.6497H49.7712C49.8047 32.6497 49.8326 32.6569 49.8549 32.6714C49.8772 32.6858 49.8884 32.7075 49.8884 32.7364C49.8884 32.7437 49.8847 32.7545 49.8772 32.769C49.8735 32.7798 49.8679 32.7907 49.8605 32.8015L49.0233 34L49.9721 35.3124C49.9907 35.3341 50 35.3576 50 35.3829C50 35.4118 49.9888 35.4335 49.9665 35.4479C49.9479 35.4624 49.9219 35.4696 49.8884 35.4696H49.5479C49.5144 35.4696 49.4865 35.4624 49.4642 35.4479C49.4419 35.4335 49.4214 35.4136 49.4028 35.3883L48.5824 34.2549H48.0689V35.3449C48.0689 35.3811 48.0559 35.4118 48.0298 35.4371C48.0075 35.4588 47.9777 35.4696 47.9405 35.4696H47.6782Z" fill="#323232"/>
</g>
<defs>
<linearGradient id="paint0_linear_497_21190" x1="11.168" y1="26.6069" x2="12.8092" y2="26.6727" gradientUnits="userSpaceOnUse">
<stop offset="0.00902039" stop-color="#00DA7E"/>
<stop offset="1" stop-opacity="0"/>
</linearGradient>
<linearGradient id="paint1_linear_497_21190" x1="57.3488" y1="27.1566" x2="58.7759" y2="27.2142" gradientUnits="userSpaceOnUse">
<stop offset="0.00902039" stop-color="#00DA7E"/>
<stop offset="1" stop-opacity="0"/>
</linearGradient>
<linearGradient id="paint2_linear_497_21190" x1="36.9884" y1="11.0802" x2="44.6496" y2="11.4906" gradientUnits="userSpaceOnUse">
<stop offset="0.00902039" stop-color="#00DA7E"/>
<stop offset="1" stop-opacity="0"/>
</linearGradient>
<linearGradient id="paint3_linear_497_21190" x1="24.9939" y1="16.0267" x2="32.2255" y2="16.6773" gradientUnits="userSpaceOnUse">
<stop offset="0.00902039" stop-color="#00DA7E"/>
<stop offset="1" stop-opacity="0"/>
</linearGradient>
<linearGradient id="paint4_linear_497_21190" x1="15.4988" y1="16.8167" x2="17.5346" y2="16.8659" gradientUnits="userSpaceOnUse">
<stop offset="0.00902039" stop-color="#00DA7E"/>
<stop offset="1" stop-opacity="0"/>
</linearGradient>
<linearGradient id="paint5_linear_497_21190" x1="48.0785" y1="11.3894" x2="52.5052" y2="11.5303" gradientUnits="userSpaceOnUse">
<stop offset="0.00902039" stop-color="#00DA7E"/>
<stop offset="1" stop-opacity="0"/>
</linearGradient>
<linearGradient id="paint6_linear_497_21190" x1="53.7001" y1="22.5534" x2="57.1252" y2="22.6921" gradientUnits="userSpaceOnUse">
<stop offset="0.00902039" stop-color="#00DA7E"/>
<stop offset="1" stop-opacity="0"/>
</linearGradient>
<linearGradient id="paint7_linear_497_21190" x1="13.2052" y1="26.8129" x2="13.9908" y2="26.8343" gradientUnits="userSpaceOnUse">
<stop offset="0.00902039" stop-color="#00DA7E"/>
<stop offset="1" stop-opacity="0"/>
</linearGradient>
<clipPath id="clip0_497_21190">
<rect width="69" height="43" fill="white" transform="translate(0 0.5)"/>
</clipPath>
</defs>
</svg>
