<svg width="192" height="192" viewBox="0 0 192 192" fill="none" xmlns="http://www.w3.org/2000/svg">
<path fill-rule="evenodd" clip-rule="evenodd" d="M156.364 35.636C159.879 39.1508 159.879 44.8492 156.364 48.364L48.364 156.364C44.8492 159.879 39.1508 159.879 35.636 156.364C32.1213 152.849 32.1213 147.151 35.636 143.636L143.636 35.636C147.151 32.1213 152.849 32.1213 156.364 35.636Z" fill="black"/>
<path fill-rule="evenodd" clip-rule="evenodd" d="M35.636 35.636C39.1508 32.1213 44.8492 32.1213 48.364 35.636L156.364 143.636C159.879 147.151 159.879 152.849 156.364 156.364C152.849 159.879 147.151 159.879 143.636 156.364L35.636 48.364C32.1213 44.8492 32.1213 39.1508 35.636 35.636Z" fill="black"/>
</svg>
