<svg width="192" height="192" viewBox="0 0 192 192" fill="none" xmlns="http://www.w3.org/2000/svg">
<path fill-rule="evenodd" clip-rule="evenodd" d="M21 96C21 91.0294 25.0294 87 30 87H162C166.971 87 171 91.0294 171 96C171 100.971 166.971 105 162 105H30C25.0294 105 21 100.971 21 96Z" fill="black"/>
<path fill-rule="evenodd" clip-rule="evenodd" d="M21 48C21 43.0294 25.0294 39 30 39H162C166.971 39 171 43.0294 171 48C171 52.9706 166.971 57 162 57H30C25.0294 57 21 52.9706 21 48Z" fill="black"/>
<path fill-rule="evenodd" clip-rule="evenodd" d="M21 144C21 139.029 25.0294 135 30 135H162C166.971 135 171 139.029 171 144C171 148.971 166.971 153 162 153H30C25.0294 153 21 148.971 21 144Z" fill="black"/>
</svg>
