<svg width="192" height="192" viewBox="0 0 192 192" fill="none" xmlns="http://www.w3.org/2000/svg">
<path fill-rule="evenodd" clip-rule="evenodd" d="M74.1004 42.5203C67.9789 39.2606 60.9171 38.2225 54.1165 39.5827C47.3159 40.9428 41.1966 44.6171 36.7997 49.9804C32.4029 55.3437 30 62.0648 30 69.0001C30 90.3577 46.0226 111.287 64.5207 127.935C73.4975 136.015 82.5154 142.602 89.308 147.175C91.9269 148.939 94.2021 150.394 96 151.512C97.7979 150.394 100.073 148.939 102.692 147.175C109.485 142.602 118.503 136.015 127.479 127.935C145.977 111.287 162 90.3577 162 69.0001C162 62.0648 159.597 55.3437 155.2 49.9804C150.803 44.6171 144.684 40.9428 137.883 39.5827C131.083 38.2225 124.021 39.2606 117.9 42.5203C111.778 45.7799 106.975 51.0598 104.308 57.4616L96 54.0001L87.6923 57.4616C85.0249 51.0598 80.2219 45.7799 74.1004 42.5203ZM96 37.2511C92.2206 32.9656 87.6786 29.3577 82.5606 26.6324C72.7662 21.4169 61.4674 19.756 50.5864 21.9322C39.7055 24.1084 29.9146 29.9873 22.8796 38.5686C15.8446 47.1499 12 57.9036 12 69.0001C12 98.6424 33.4774 124.213 52.4793 141.315C62.2525 150.111 71.9846 157.211 79.2545 162.106C82.8982 164.559 85.9452 166.474 88.0985 167.784C89.1757 168.44 90.0308 168.945 90.6267 169.292C90.9248 169.466 91.1582 169.6 91.3223 169.694C91.4044 169.741 91.4692 169.777 91.5161 169.804L91.5729 169.836L91.5912 169.846L91.5977 169.85C91.6003 169.851 91.6026 169.853 96 162L91.6026 169.853C94.3346 171.383 97.6654 171.383 100.397 169.853L96 162C100.397 169.853 100.4 169.851 100.402 169.85L100.409 169.846L100.427 169.836L100.484 169.804C100.531 169.777 100.596 169.741 100.678 169.694C100.842 169.6 101.075 169.466 101.373 169.292C101.969 168.945 102.824 168.44 103.901 167.784C106.055 166.474 109.102 164.559 112.745 162.106C120.015 157.211 129.747 150.111 139.521 141.315C158.523 124.213 180 98.6424 180 69.0001C180 57.9036 176.155 47.1499 169.12 38.5686C162.085 29.9873 152.295 24.1084 141.414 21.9322C130.533 19.756 119.234 21.4169 109.439 26.6324C104.321 29.3577 99.7794 32.9656 96 37.2511Z" fill="black"/>
</svg>
