<svg width="192" height="192" viewBox="0 0 192 192" fill="none" xmlns="http://www.w3.org/2000/svg">
<path d="M132 24C125.014 24 118.124 25.6265 111.875 28.7508C105.627 31.875 100.192 36.4112 96 42C90.3332 34.4442 82.4326 28.863 73.4175 26.0469C64.4024 23.2308 54.7298 23.3226 45.7697 26.3093C36.8097 29.2959 29.0165 35.0261 23.4941 42.688C17.9717 50.35 15 59.5553 15 69C15 122.925 89.925 165.45 93.075 167.25C93.9676 167.752 94.9762 168.01 96 168C97.0247 168.018 98.0351 167.758 98.925 167.25C112.723 159.184 125.664 149.735 137.55 139.05C163.725 115.5 177 91.95 177 69C177 57.0653 172.259 45.6193 163.82 37.1802C155.381 28.7411 143.935 24 132 24V24Z" fill="black"/>
</svg>
