<svg width="192" height="192" viewBox="0 0 192 192" fill="none" xmlns="http://www.w3.org/2000/svg">
<path fill-rule="evenodd" clip-rule="evenodd" d="M96 63C87.7157 63 81 69.7157 81 78C81 86.2843 87.7157 93 96 93C104.284 93 111 86.2843 111 78C111 69.7157 104.284 63 96 63ZM63 78C63 59.7746 77.7746 45 96 45C114.225 45 129 59.7746 129 78C129 96.2254 114.225 111 96 111C77.7746 111 63 96.2254 63 78Z" fill="black"/>
<path fill-rule="evenodd" clip-rule="evenodd" d="M96 27C82.474 27 69.5019 32.3732 59.9376 41.9376C50.3732 51.5019 45 64.474 45 78C45 101.76 58.3066 123.687 72.7915 140.344C79.9239 148.547 87.0795 155.168 92.4538 159.736C93.7525 160.84 94.9433 161.821 96 162.672C97.0567 161.821 98.2475 160.84 99.5462 159.736C104.921 155.168 112.076 148.547 119.209 140.344C133.693 123.687 147 101.76 147 78C147 64.474 141.627 51.5019 132.062 41.9376C122.498 32.3732 109.526 27 96 27ZM96 174C90.8388 181.373 90.8364 181.371 90.8338 181.37L90.8274 181.365L90.8104 181.353L90.7602 181.318C90.7195 181.289 90.6645 181.25 90.5956 181.201C90.4579 181.102 90.2647 180.963 90.0197 180.784C89.5297 180.427 88.8322 179.91 87.9567 179.241C86.2066 177.903 83.7403 175.954 80.7962 173.451C74.9205 168.457 67.0761 161.203 59.2085 152.156C43.6934 134.313 27 108.24 27 78C27 59.7001 34.2696 42.1496 47.2096 29.2096C60.1496 16.2696 77.7001 9 96 9C114.3 9 131.85 16.2696 144.79 29.2096C157.73 42.1496 165 59.7001 165 78C165 108.24 148.307 134.313 132.791 152.156C124.924 161.203 117.079 168.457 111.204 173.451C108.26 175.954 105.793 177.903 104.043 179.241C103.168 179.91 102.47 180.427 101.98 180.784C101.735 180.963 101.542 181.102 101.404 181.201C101.336 181.25 101.281 181.289 101.24 181.318L101.19 181.353L101.173 181.365L101.166 181.37C101.164 181.371 101.161 181.373 96 174ZM96 174L101.161 181.373C98.0623 183.542 93.9377 183.542 90.8388 181.373L96 174Z" fill="black"/>
</svg>
