<svg width="192" height="192" viewBox="0 0 192 192" fill="none" xmlns="http://www.w3.org/2000/svg">
<path d="M96 12C78.5018 12.0199 61.726 18.9798 49.3529 31.3529C36.9798 43.726 30.0199 60.5018 30 78C30 134.475 90 177.15 92.55 178.95C93.5719 179.63 94.7723 179.993 96 179.993C97.2277 179.993 98.4281 179.63 99.45 178.95C102 177.15 162 134.475 162 78C161.98 60.5018 155.02 43.726 142.647 31.3529C130.274 18.9798 113.498 12.0199 96 12V12ZM96 54C100.747 54 105.387 55.4076 109.334 58.0447C113.28 60.6819 116.357 64.4302 118.173 68.8156C119.99 73.201 120.465 78.0266 119.539 82.6822C118.613 87.3377 116.327 91.6141 112.971 94.9706C109.614 98.327 105.338 100.613 100.682 101.539C96.0266 102.465 91.201 101.99 86.8156 100.173C82.4302 98.3566 78.6819 95.2805 76.0447 91.3337C73.4076 87.3869 72 82.7467 72 78C72 71.6348 74.5286 65.5303 79.0294 61.0294C83.5303 56.5286 89.6348 54 96 54V54Z" fill="black"/>
</svg>
