<svg width="192" height="192" viewBox="0 0 192 192" fill="none" xmlns="http://www.w3.org/2000/svg">
<path fill-rule="evenodd" clip-rule="evenodd" d="M60.3076 33.615C54.6792 34.8288 49.564 37.8164 45.7333 42.1683C41.3957 47.096 39.002 53.4352 39 60M60.3076 33.615L73.8287 65.1642L62.2298 82.8056L62.1943 82.8601C60.8002 85.0142 59.982 87.4898 59.8179 90.0504C59.6537 92.6109 60.1492 95.1707 61.2568 97.4851L69.3757 93.5996L61.2747 97.5225C68.3351 112.103 80.125 123.862 94.7233 130.885L94.7734 130.909C97.1276 132.024 99.7314 132.506 102.329 132.309C104.917 132.113 107.409 131.248 109.563 129.8C109.57 129.795 109.578 129.789 109.586 129.784L126.946 118.188L158.385 131.691C157.172 137.32 154.184 142.436 149.832 146.267C144.904 150.604 138.565 152.998 132 153M158.773 129.434C158.773 129.433 158.773 129.432 158.773 129.431L158.773 129.428M78.2471 91.2086C83.333 100.909 91.2653 108.824 100.977 113.888L118.281 102.329C120.36 100.927 122.759 100.071 125.257 99.8414C127.756 99.6113 130.273 100.015 132.574 101.015C132.585 101.02 132.596 101.024 132.606 101.029L167.615 116.065C170.612 117.327 173.115 119.533 174.743 122.348C176.381 125.181 177.043 128.473 176.627 131.719M78.2471 91.2086L89.7952 73.6444C89.8153 73.6138 89.8352 73.583 89.855 73.5522C91.1813 71.4802 91.9777 69.1138 92.1739 66.6614C92.3694 64.2177 91.9629 61.7635 90.9903 59.5134L75.9367 24.3883C74.6752 21.3901 72.4684 18.8856 69.6517 17.2567C66.8191 15.6186 63.5267 14.9567 60.2812 15.373M39 60.002C39.0005 84.6664 48.7987 108.321 66.2391 125.761C83.6795 143.201 107.334 152.999 131.998 153" fill="black"/>
</svg>
